M48
INCH,TZ
FMAT,2
ICI,OFF
%
T1C.01
X044571Y013871
X044821Y013871
X045071Y013871
X045071Y013621
X045321Y013621
X045571Y013621
X046671Y013821
X046921Y013771
X047146Y013696
X047371Y013635
X047557Y013496
X047789Y013523
X049496Y013371
X049671Y013221
X049446Y013071
X049646Y012946
X049896Y012946
X050121Y013221
X050471Y013121
X050246Y012846
X050646Y012746
X051046Y012646
X051046Y012896
X052446Y012621
X052592Y012440
X052592Y012815
X052696Y013021
X052936Y013011
X052942Y012771
X053291Y012765
X053370Y012985
X053286Y013206
X053297Y013439
X053389Y013651
X052756Y013501
X052696Y013271
X052296Y013521
X052096Y013646
X052096Y013896
X051996Y014171
X051732Y014242
X051271Y014271
X051096Y014096
X051321Y014021
X052536Y013921
X054607Y014335
X054812Y014218
X055045Y014214
X055070Y013882
X056755Y013157
X056714Y012928
X056575Y012742
X056563Y012468
X056194Y012017
X056047Y012194
X055810Y012244
X055899Y012588
X055505Y012539
X055196Y012346
X055196Y011996
X054256Y012146
X054088Y012460
X053875Y012346
X053419Y012568
X053225Y012267
X053047Y012415
X055674Y012938
X055692Y010896
X055773Y010678
X055978Y010787
X055971Y010421
X055584Y010383
X055271Y010373
X054731Y010391
X054271Y010375
X053771Y010375
X053372Y010660
X053271Y010421
X052771Y010421
X052271Y010421
X051771Y010421
X051271Y010421
X051271Y010671
X051271Y010921
X049771Y010921
X049471Y010921
X049221Y010921
X048971Y010921
X050271Y010421
X050771Y010421
X049721Y009421
X049496Y009271
X049321Y009071
X049096Y008921
X050871Y007871
X051521Y008521
X051771Y008521
X052021Y008521
X052271Y008521
X052521Y008521
X052771Y008521
X053021Y008521
X053521Y008521
X053821Y008521
X054071Y008521
X054521Y008521
X055021Y008521
X055521Y008521
X055771Y008521
X056021Y008561
X056271Y008521
X056521Y008521
X056771Y008521
X057021Y008521
X057271Y008521
X057521Y008521
X058221Y007871
X058521Y007871
X058571Y008221
X058821Y008471
X059071Y008521
X059521Y008521
X056975Y010421
X059836Y011181
X061057Y012204
X065623Y011653
X066017Y011574
X062159Y015118
X061844Y015118
X061529Y015118
X061214Y015118
X060584Y015433
X060584Y015748
X060269Y015748
X060269Y015433
X059954Y015433
X059639Y015433
X059324Y015433
X059324Y015748
X059009Y015748
X059009Y015433
X058694Y015433
X058694Y015748
X058379Y015748
X058379Y015433
X058064Y015433
X058064Y015748
X057749Y015748
X057749Y015433
X057749Y016063
X058064Y016063
X058379Y016063
X059009Y016063
X059696Y016086
X059696Y016336
X060096Y016221
X060269Y016378
X060269Y016063
X061214Y016063
X061214Y015748
X061529Y015748
X061844Y015748
X062159Y015748
X062159Y016063
X062474Y016063
X062867Y016023
X062871Y015771
X062789Y015433
X062474Y015433
X061844Y016063
X061529Y016063
X062159Y016456
X062159Y017007
X062474Y017007
X062474Y017322
X062159Y017322
X061844Y017322
X061844Y017007
X061529Y017007
X061529Y017322
X061529Y017637
X061214Y017637
X060899Y017637
X060584Y017637
X060584Y017322
X060899Y017322
X060899Y017007
X060584Y017007
X060269Y017007
X059954Y017007
X059639Y017007
X059639Y017322
X059639Y017637
X059954Y017637
X059596Y018046
X059346Y018046
X059096Y018046
X058694Y017952
X058379Y017952
X058064Y017952
X057749Y017952
X057749Y017637
X058064Y017637
X058379Y017637
X058694Y017322
X059009Y017322
X059009Y017007
X058616Y016929
X058379Y017007
X058196Y016821
X058054Y017017
X057441Y016701
X057211Y016691
X056971Y016871
X056671Y016521
X056296Y016646
X056421Y016846
X056246Y017046
X056121Y016821
X055860Y017322
X055545Y017322
X055545Y017007
X055230Y017322
X054915Y017322
X054915Y017637
X055230Y017637
X055230Y017952
X055230Y018267
X054915Y018267
X054915Y017952
X054600Y017952
X054600Y018267
X054600Y018582
X054600Y018897
X054915Y018897
X055230Y018897
X055230Y018582
X054915Y018582
X055545Y017952
X055946Y017696
X056296Y017746
X056401Y017531
X056646Y017496
X057046Y017896
X059009Y017637
X059324Y017637
X060584Y017952
X060899Y017952
X061529Y017952
X061844Y017952
X061844Y018189
X061844Y018503
X062159Y018543
X062159Y018307
X062474Y018267
X062789Y018267
X062789Y018582
X062474Y019015
X062474Y019252
X062159Y019409
X062159Y019724
X062474Y019724
X062474Y020039
X062159Y020039
X062159Y020354
X062159Y020590
X062474Y020354
X062789Y020354
X062749Y020590
X062159Y021023
X062159Y021299
X062474Y021299
X062474Y021614
X062159Y021614
X061844Y021614
X061529Y021614
X061529Y021299
X061844Y021299
X061214Y021929
X060899Y021929
X060899Y021614
X060269Y021614
X060269Y021929
X060269Y022244
X059954Y022244
X059639Y022244
X059639Y021929
X059639Y021614
X059324Y021614
X059324Y021929
X059009Y021929
X059009Y021614
X058694Y021614
X058694Y021929
X058694Y022244
X059009Y022244
X058379Y022244
X058064Y022244
X057749Y022244
X057721Y021771
X057496Y021496
X057146Y021046
X056896Y021046
X056696Y021496
X056246Y021496
X055996Y021496
X056396Y022246
X056621Y022346
X056746Y022146
X056996Y022146
X057421Y022871
X054796Y021946
X054496Y021846
X054285Y021732
X053970Y021732
X053970Y021417
X053970Y021102
X054285Y021102
X054600Y021102
X054600Y020787
X054285Y020787
X054285Y020472
X054600Y020472
X054600Y020157
X054915Y020157
X055230Y020157
X055230Y020472
X054915Y020472
X054915Y020787
X055230Y020787
X056266Y020476
X056446Y020646
X057246Y020221
X057246Y019971
X057749Y019724
X058064Y019724
X058379Y019724
X058379Y020039
X058064Y020354
X057749Y020354
X058671Y020571
X058921Y020571
X059271Y020571
X059521Y020571
X059521Y020911
X059221Y021121
X059009Y021299
X058694Y021299
X058379Y021614
X060121Y021171
X060321Y021046
X060571Y021046
X060584Y020354
X060584Y020039
X060584Y019724
X060269Y019724
X060269Y020039
X060240Y020354
X061214Y020354
X061214Y020039
X061529Y020039
X061529Y020354
X061844Y020354
X061844Y020039
X061844Y019724
X061529Y019724
X061214Y019055
X061214Y018740
X060820Y018700
X060899Y019173
X060584Y019173
X060269Y019094
X059954Y019094
X059639Y019409
X059324Y019409
X059009Y019409
X058694Y019409
X058694Y019724
X059009Y019724
X059324Y019724
X059009Y020039
X061844Y018937
X062159Y018976
X062789Y019409
X062789Y019724
X062789Y021299
X062789Y021614
X062896Y021871
X062159Y022244
X061844Y022244
X061529Y022244
X061214Y022244
X060584Y022244
X055230Y019842
X054915Y019842
X054915Y019527
X055230Y019527
X055230Y019212
X054915Y019212
X054600Y019212
X054600Y019527
X054600Y019842
X053970Y020472
X053655Y020472
X053340Y020472
X053025Y020472
X052710Y020472
X052710Y020787
X053025Y020787
X053340Y020787
X053655Y020787
X053655Y021102
X053340Y021102
X053025Y021102
X052710Y021102
X052395Y021102
X052080Y021102
X051765Y021102
X051765Y020787
X051765Y020472
X052080Y020472
X052395Y020472
X051450Y020472
X051135Y020472
X050820Y020472
X050505Y020472
X050190Y020472
X049875Y020472
X049875Y020157
X049560Y020157
X049560Y020472
X049246Y020472
X049246Y020157
X049246Y019842
X049246Y019527
X049560Y019527
X049560Y019842
X049875Y019842
X049875Y019527
X049875Y019212
X049560Y019212
X049246Y019212
X049246Y018897
X049246Y018582
X049560Y018582
X049560Y018897
X049875Y018582
X049875Y018267
X049560Y018267
X049875Y017952
X049875Y017637
X049560Y017637
X049246Y017637
X049246Y017322
X049246Y017007
X049560Y017007
X049560Y017322
X049875Y017322
X049875Y017007
X049875Y016692
X049560Y016692
X049246Y016692
X049246Y016378
X049560Y016378
X049875Y016378
X049875Y016063
X049560Y016063
X049246Y016063
X049246Y015748
X049246Y015433
X049560Y015433
X049560Y015748
X049875Y015748
X049875Y015433
X050190Y015433
X050190Y015748
X050505Y015748
X050505Y015433
X050820Y015433
X050820Y015748
X051135Y015748
X051135Y015433
X051450Y015433
X051450Y015748
X051765Y015748
X052080Y015748
X052080Y015433
X052395Y015433
X052395Y015748
X052710Y015748
X053025Y015748
X053025Y015433
X053340Y015433
X053655Y015433
X053655Y015748
X053340Y015748
X053331Y016121
X052951Y016121
X052571Y016131
X052710Y016692
X053025Y016692
X053340Y016692
X053625Y016722
X053625Y017037
X053340Y017007
X053340Y017322
X053625Y017352
X053655Y017637
X053340Y017637
X053025Y017637
X052710Y017637
X052710Y017322
X053025Y017322
X053025Y017007
X052710Y017007
X052395Y017007
X052395Y017322
X052395Y017637
X051765Y017637
X051765Y017322
X051765Y017007
X051765Y016692
X051450Y016692
X051135Y016692
X050820Y016692
X050820Y017007
X050820Y017322
X050801Y017618
X051135Y017637
X051135Y017322
X051135Y017007
X051450Y017007
X051450Y017322
X051450Y017637
X051450Y018267
X051135Y018267
X050820Y018267
X050820Y018582
X050820Y018897
X051135Y018897
X051135Y018582
X051450Y018582
X051450Y018897
X051765Y018897
X051765Y018582
X051765Y018267
X052395Y018267
X052395Y018582
X052395Y018897
X052710Y018897
X053025Y018897
X053025Y018582
X053340Y018582
X053340Y018897
X053340Y019212
X053340Y019527
X053655Y019527
X053025Y019527
X052710Y019527
X052710Y019212
X053025Y019212
X052395Y019212
X052395Y019527
X051765Y019527
X051765Y019212
X050820Y019212
X050820Y019527
X050291Y018411
X047296Y018346
X047296Y018596
X047296Y019246
X044446Y020346
X044546Y020571
X044646Y020796
X044996Y020796
X045096Y020571
X044196Y020796
X044346Y020121
X044246Y019896
X044821Y021571
X043996Y021746
X039896Y022771
X039896Y023121
X039896Y024271
X039896Y024621
X041146Y024996
X041771Y024996
X042571Y026121
X043211Y026121
X043171Y026621
X043171Y027121
X042571Y027121
X042571Y026621
X042571Y027621
X042571Y028121
X042571Y028621
X043171Y028621
X043171Y028121
X043171Y027621
X046461Y026511
X046446Y026196
X046696Y026196
X046396Y025946
X046146Y025896
X046621Y025646
X046871Y025646
X045571Y026121
X046021Y024846
X046021Y024496
X046271Y024496
X046396Y024696
X045546Y024646
X047946Y023921
X049246Y024546
X049396Y024371
X050096Y024396
X050146Y024646
X050396Y024671
X050646Y024671
X050896Y024671
X051346Y024921
X049696Y025446
X049346Y025446
X050271Y026376
X050476Y026496
X051196Y026471
X051196Y026721
X051196Y026971
X050646Y026946
X050396Y026946
X052646Y026946
X052646Y026596
X053296Y026446
X053471Y026621
X053646Y026796
X053646Y027046
X053396Y027046
X054301Y027006
X054771Y027021
X055271Y027021
X055771Y027021
X056271Y027021
X056871Y027021
X056771Y026421
X056171Y026421
X055771Y026421
X055321Y026421
X054771Y026471
X054320Y026389
X054146Y025166
X054051Y024941
X054271Y024621
X054421Y024821
X053881Y024331
X053721Y024161
X053496Y024096
X053716Y024506
X053196Y025296
X049396Y023821
X047946Y023421
X049346Y022321
X049371Y022071
X049246Y021871
X049246Y021417
X049246Y021102
X049560Y021102
X049875Y021102
X050190Y021102
X050190Y021417
X050505Y021102
X050820Y021102
X051135Y021102
X051450Y021102
X051450Y020787
X051135Y020787
X050820Y020787
X050505Y020787
X050190Y020787
X049875Y020787
X049560Y020787
X049246Y020787
X050471Y021871
X052996Y022321
X052946Y022546
X052946Y022796
X052946Y023046
X053655Y021732
X053655Y021417
X053970Y020787
X052710Y018582
X052710Y018267
X053025Y018267
X053340Y018267
X053655Y018267
X054600Y017637
X054151Y017371
X054041Y016641
X054600Y016692
X054600Y016378
X054915Y016378
X055230Y016378
X055230Y016063
X054915Y016063
X054915Y015748
X055230Y015748
X055230Y015433
X054915Y015433
X054915Y015118
X054600Y015118
X054285Y015118
X054285Y015433
X054600Y015433
X054285Y015748
X053970Y015748
X053970Y015433
X053970Y015118
X053655Y015118
X053340Y015118
X053025Y015118
X052710Y015118
X052710Y015433
X052395Y015118
X052080Y015118
X051765Y015118
X051450Y015118
X051135Y015118
X050820Y015118
X050505Y015118
X050190Y015118
X049875Y015118
X049560Y015118
X049246Y015118
X046561Y015711
X046581Y015971
X046371Y016311
X046521Y016521
X046446Y016996
X046071Y016771
X045846Y016696
X045446Y016521
X045096Y016621
X044871Y016571
X044621Y016571
X044521Y016346
X044171Y016421
X043971Y016271
X043771Y016421
X043746Y016046
X045221Y017171
X047296Y017546
X050291Y017331
X050291Y016951
X050411Y016211
X051101Y016121
X051481Y016121
X052395Y016692
X054600Y016063
X054915Y016692
X055545Y016378
X055899Y016220
X061844Y017637
X062159Y017637
X062474Y017637
X062789Y017637
X062789Y017322
X062789Y017007
X050046Y013596
X048296Y012221
X045121Y010871
X052021Y008271
X049010Y007581
X061071Y024781
X060553Y027389
X058371Y027321
X059021Y028971
X059321Y028871
X059021Y029446
X059321Y029571
X058521Y029421
X058296Y029496
X058021Y029421
X058071Y029071
X056671Y029171
X056421Y029161
X056271Y028971
X056021Y029171
X056021Y029411
X056421Y029421
X055651Y029221
X055411Y029201
X055241Y028951
X055581Y028941
X054561Y029386
X054396Y029221
X054346Y029496
X054096Y029421
X053871Y029521
X053621Y029521
X053046Y029121
X053146Y028896
X052796Y029071
X052696Y029296
X052446Y029296
X052246Y029171
X052046Y029296
X051796Y029296
X051796Y029046
X052346Y028946
X057371Y029521
X057621Y029521
X043171Y029621
X043171Y030121
X042571Y030121
X041571Y029621
X042571Y029121
X043171Y029121
T2C.011811
X051021Y025421
X050946Y024421
X051246Y023821
X051246Y023321
X049396Y023221
X049396Y023021
X050696Y022171
X053596Y022196
X054096Y022196
X055071Y022421
X054196Y023121
X047946Y023671
X047946Y024171
X062041Y024415
X062277Y024415
X062415Y024277
X062415Y024041
X062927Y024041
X062927Y024277
X063065Y024415
X063301Y024415
X063301Y024927
X063065Y024927
X062927Y025065
X062927Y025301
X062415Y025301
X062415Y025065
X062277Y024927
X062041Y024927
X063821Y025721
X063871Y026171
X063571Y026171
X063346Y026296
X063096Y026296
X062846Y026396
X067297Y024806
X063321Y022056
X065033Y021810
X063321Y021196
X063321Y020346
X063321Y019496
X063321Y018646
X063321Y017796
X063321Y016946
X063321Y016096
X063096Y015471
X059324Y012362
X059836Y012047
X059560Y011929
X058379Y012244
X058261Y012480
X058773Y010866
X059479Y010826
X058084Y010354
X047421Y012521
X044771Y012471
X042421Y011521
X041571Y010121
X042521Y009521
X042821Y008421
X042821Y007971
X042821Y007671
X042821Y007321
X051810Y014012
X042221Y015771
X040221Y015936
X040221Y015346
X040221Y016527
X040221Y017118
X042221Y016971
X042221Y017671
X042371Y017921
X042221Y018121
X042371Y018321
X042221Y018571
X040221Y018299
X076322Y021929
X076578Y021929
X085732Y021929
X085988Y021929
T3C.015748
X069796Y016121
X068721Y013831
X068104Y013818
X067721Y011971
X061896Y013445
X062471Y015071
X060899Y015078
X059639Y015039
X059146Y015021
X058346Y015046
X057921Y015021
X057571Y015121
X056871Y015021
X056871Y015321
X053870Y013740
X052221Y013246
X047896Y012796
X044471Y011971
X044171Y012021
X044221Y011721
X044121Y011121
X044471Y011021
X042521Y010921
X040356Y010301
X040268Y009974
X041021Y009121
X041271Y007271
X039771Y007271
X049521Y010521
X050021Y010621
X050671Y010921
X057885Y013392
X065190Y009094
X062075Y007637
X055721Y008221
X044371Y013621
X044521Y014396
X045421Y014396
X045621Y015721
X045621Y016121
X046671Y020771
X046671Y021071
X046271Y021121
X045671Y021121
X046271Y021671
X046471Y023071
X046271Y023871
X044971Y023571
X044721Y023221
X043671Y023221
X043621Y021621
X050171Y023121
X050721Y022521
X050171Y023821
X050146Y024121
X054621Y024621
X060171Y024471
X060971Y024351
X060871Y025571
X060631Y025571
X064451Y024991
X064621Y025161
X064621Y024471
X064251Y023941
X064251Y023696
X062651Y023121
X062651Y022881
X062321Y023121
X061911Y023121
X061471Y022921
X065269Y021574
X050921Y027021
X048021Y028371
X046146Y026171
X037513Y028110
T4C.019685
X062828Y028267
X067522Y029103
X070973Y027362
X076686Y023543
X077907Y023543
X079875Y022401
X081091Y022047
X083261Y021535
X084846Y021417
X086490Y020629
X086765Y020393
X087041Y020629
X088891Y021614
X089442Y022401
X087375Y023543
X086775Y023543
X086175Y023503
X085210Y022401
X081450Y023543
X086962Y025084
X087474Y025551
X088064Y025084
X099560Y023385
X101608Y024448
X100309Y026338
X099994Y026889
X100072Y027874
X099560Y029671
X075702Y022405
X074521Y022992
X074246Y021771
X075309Y021417
X077159Y020826
X077631Y020826
X077316Y019527
X077041Y019252
X076765Y019527
X075269Y019639
X073822Y019143
X073537Y018858
X072724Y018818
X070623Y019094
X075112Y018592
X078183Y019488
X078458Y019252
X078734Y019488
X080308Y018937
X080623Y018661
X080938Y018346
X080702Y018031
X080308Y018075
X081253Y018031
X081608Y018031
X082828Y017637
X083931Y016889
X083222Y015354
X086411Y014606
X079797Y017086
X078497Y017086
X073576Y016968
X075013Y014783
X074994Y014183
X076647Y013543
X077671Y014133
X079206Y014881
X075387Y013110
X075033Y013267
X076805Y012992
X077198Y012440
X077986Y011771
X076214Y011417
X075584Y011417
X074875Y011161
X073301Y010118
X073320Y009744
X073320Y009370
X072749Y009685
X072671Y009256
X074088Y008897
X074905Y008297
X075456Y008070
X075820Y008189
X076057Y007874
X076450Y007815
X076785Y007342
X077060Y007637
X076391Y008228
X077277Y009291
X076686Y009606
X076175Y009527
X074954Y009665
X076962Y010118
X076805Y010633
X073541Y012283
X072120Y011889
X072592Y010314
X070230Y009055
X069934Y009448
X069797Y009783
X069462Y010019
X069324Y009153
X068891Y009252
X063891Y014921
X065623Y018818
X064285Y020787
X080785Y019566
X083773Y019448
X086056Y019448
X086372Y019252
X086686Y019448
X087513Y019252
X089718Y019252
X090072Y018937
X090348Y019291
X090387Y018582
X090072Y018307
X089718Y018075
X090072Y017598
X090387Y017244
X090387Y017952
X088054Y017480
X084560Y018592
X081092Y021102
T5C.023622
X079482Y021496
X084403Y022440
X083222Y023149
X071336Y022405
X068497Y022755
X067321Y022494
X066071Y022521
X064571Y023071
X064321Y023321
X063621Y022846
X063091Y022821
X064285Y021732
X059771Y023421
X058821Y022946
X058021Y023471
X057421Y023421
X055871Y023521
X055171Y023671
X054621Y023671
X057021Y024621
X056621Y025321
X055821Y025321
X057921Y025871
X058371Y026171
X058771Y025821
X059671Y025921
X060121Y025546
X062496Y026571
X064371Y027221
X064482Y026732
X064993Y026220
X065584Y026220
X066096Y026259
X068714Y025452
X068970Y026929
X066214Y027992
X063821Y028121
X063821Y027671
X063301Y028346
X064088Y030078
X057521Y027021
X050521Y028921
X050021Y028921
X049521Y028596
X047771Y028871
X047171Y028871
X048096Y030071
X050021Y029521
X050521Y029521
X044321Y027271
X045521Y026921
X047271Y027021
X047771Y027021
X047771Y026421
X047271Y026421
X049646Y026846
X044871Y025721
X043171Y025621
X042571Y025621
X044321Y024671
X045571Y024171
X046446Y024196
X039571Y023692
X038271Y022871
X037521Y022071
X041571Y021021
X041571Y020621
X042321Y020521
X040221Y018671
X038821Y013121
X041321Y012821
X041021Y011871
X040971Y010631
X043771Y009521
X041521Y009090
X040271Y009071
X047271Y009358
X047771Y009358
X050021Y008521
X049600Y007913
X050521Y007921
X047771Y011021
X047271Y011021
X047571Y012221
X047671Y013171
X056571Y015671
X065860Y012953
X068104Y013228
X070253Y012471
X066096Y008818
X088655Y011445
X092505Y011314
X093005Y011314
X093505Y011314
X094005Y011314
X094505Y011314
X095005Y011314
X095505Y011314
X095505Y010814
X095005Y010814
X094505Y010814
X094005Y010814
X093505Y010814
X093005Y010814
X092505Y010814
X092505Y010314
X093005Y010314
X093005Y009814
X092505Y009814
X093505Y009814
X093505Y010314
X094005Y010314
X094005Y009814
X094505Y009814
X094505Y010314
X095005Y010314
X095005Y009814
X095505Y009814
X095505Y010314
X095505Y009314
X095005Y009314
X094505Y009314
X094005Y009314
X093505Y009314
X093005Y009314
X092505Y009314
X092705Y008564
X093155Y008564
X093155Y008114
X092705Y008114
X089875Y017086
X082198Y017086
X068621Y017147
X066171Y023681
X064910Y024121
X060571Y024171
X040421Y029621
X037821Y030071
X037521Y028571
X038221Y026121
X037521Y025321
X099797Y028566
X101883Y019645
X101883Y018858
X101883Y018070
T6C.027559
X099972Y013954
X099185Y013954
X098397Y013954
X097610Y013954
X096822Y013954
X096035Y013954
X095248Y013954
X094460Y013954
X093673Y013954
X092885Y013954
X092885Y022616
X093673Y022616
X094460Y022616
X095248Y022616
X096035Y022616
X096822Y022616
X097610Y022616
X098397Y022616
X099185Y022616
X099972Y022616
X059271Y029221
X056521Y026721
X050271Y029221
X042871Y029871
X047521Y026721
X042871Y025871
X047521Y010721
X050271Y008221
X056521Y010721
X059271Y008221
T7C.031496
X079486Y011305
X079486Y011383
X079486Y011462
X079486Y011541
X079486Y011620
X079486Y011698
X080151Y011541
X085230Y011541
X085785Y011541
X085785Y011462
X085785Y011383
X085785Y011305
X085785Y011620
X085785Y011698
X038071Y021871
X037021Y021871
X037021Y025121
X038071Y025121
X038071Y028371
X037021Y028371
X101286Y028821
X101286Y029871
T8C.035433
X097356Y025185
X097356Y024185
X093419Y024185
X093419Y025185
X089482Y025185
X089482Y024185
X085545Y024185
X085545Y025185
X081608Y025185
X081608Y024185
X077671Y024185
X077671Y025185
X073734Y025185
X073734Y024185
X070505Y024185
X070505Y025185
T9C.035433
X065663Y028503
X064875Y028503
X040738Y019795
X040620Y019795
X040580Y019795
X040423Y019795
X040305Y019795
X040226Y019795
X038297Y019795
X038140Y019795
X037982Y019795
X037844Y019795
X037844Y014047
X037982Y014047
X038140Y014047
X038297Y014047
X040226Y014047
X040305Y014047
X040423Y014047
X040580Y014047
X040620Y014047
X040738Y014047
X080881Y012958
X081881Y012958
X082881Y012958
X083881Y012958
X083381Y013958
X082381Y013958
X081381Y013958
X084381Y013958
X038771Y028227
X038771Y029015
T10C.03937
X037887Y008421
X038621Y009108
X038621Y010840
X037887Y011571
X063521Y007571
X064521Y007571
X065521Y007571
X068636Y026159
X068833Y026159
X069029Y026159
X069226Y026159
X069423Y026159
X069620Y026159
X069817Y026159
X067474Y026868
X067474Y027064
X067474Y027261
X067474Y027458
X067474Y027655
X067474Y027852
X067474Y028049
X068636Y028718
X068833Y028718
X069029Y028718
X069226Y028718
X069423Y028718
X069620Y028718
X069817Y028718
X073734Y028996
X073734Y028208
X073734Y027421
X073734Y026633
X077671Y026633
X077671Y027421
X077671Y028208
X077671Y028996
X081608Y028996
X081608Y028208
X081608Y027421
X081608Y026633
X085545Y026633
X085545Y027421
X085545Y028208
X085545Y028996
X089482Y028996
X089482Y028208
X089482Y027421
X089482Y026633
X093419Y026633
X093419Y027421
X093419Y028208
X093419Y028996
X097356Y028996
X097356Y028208
X097356Y027421
X097356Y026633
T11C.03937
X047321Y007471
T12C.043307
X080033Y008441
X081033Y008451
X084238Y008441
X085238Y008451
T13C.047244
X062671Y024671
T14C.059055
X072612Y026437
X074856Y026437
X076549Y026437
X078793Y026437
X080486Y026437
X082730Y026437
X084423Y026437
X086667Y026437
X088360Y026437
X090604Y026437
X092297Y026437
X094541Y026437
X096234Y026437
X098478Y026437
X098478Y029192
X096234Y029192
X094541Y029192
X092297Y029192
X090604Y029192
X088360Y029192
X086667Y029192
X084423Y029192
X082730Y029192
X080486Y029192
X078793Y029192
X076549Y029192
X074856Y029192
X072612Y029192
X039548Y026200
X039548Y021185
T15C.11811
X045505Y028550
X061253Y028550
X100623Y020676
X088419Y013195
X061253Y008865
X045505Y008865
T16C.125984
X080385Y010320
X084885Y010320
M30
