*
%LPD*%
%LNA20-Watermelon_Rev_A.sts*%
%FSLAX24Y24*%
%MOIN*%
%AD*%
%ADD73C,0.010000*%
%ADD105C,0.000000*%
%ADD132C,0.122100*%
%ADD133C,0.063100*%
%ADD134R,0.074000X0.074000*%
%ADD135R,0.044000X0.044000*%
%ADD136R,0.028000X0.027000*%
%ADD137C,0.043400*%
%ADD138C,0.050000*%
%ADD139R,0.057100X0.057100*%
%ADD140C,0.057100*%
%ADD141R,0.027000X0.028000*%
%ADD142R,0.064000X0.064000*%
%ADD143C,0.064000*%
%ADD144R,0.043400X0.043400*%
%ADD145R,0.064000X0.054000*%
%ADD152R,0.074900X0.074900*%
%ADD153R,0.027800X0.027800*%
%ADD154R,0.141800X0.067000*%
%ADD158C,0.092600*%
%ADD159R,0.025700X0.051200*%
%ADD162C,0.035500*%
%ADD163C,0.074000*%
%ADD165C,0.031600*%
%ADD167R,0.059100X0.043400*%
%ADD168R,0.043400X0.059100*%
%ADD172R,0.078800X0.055200*%
%ADD177R,0.045300X0.045300*%
%ADD178C,0.045300*%
%ADD182C,0.130000*%
%ADD183C,0.069000*%
%ADD184C,0.051200*%
%ADD185R,0.034000X0.044000*%
%ADD186R,0.024000X0.044000*%
%ADD188R,0.054000X0.064000*%
%ADD189R,0.044000X0.034000*%
%ADD190R,0.044000X0.024000*%
%ADD191R,0.067000X0.141800*%
%ADD192R,0.051200X0.025700*%
%ADD193R,0.074000X0.069000*%
%ADD194R,0.074000X0.094000*%
%ADD195R,0.061100X0.106400*%
%ADD196R,0.119000X0.028000*%
%ADD197R,0.074900X0.067000*%
%ADD198C,0.044000*%
%ADD199R,0.098500X0.074900*%
%ADD200R,0.044000X0.104000*%
%ADD201R,0.034000X0.024000*%
%ADD202R,0.067000X0.031600*%
%ADD203R,0.059100X0.051200*%
%ADD204R,0.059100X0.067000*%
%ADD205R,0.090600X0.051200*%
%ADD206R,0.024000X0.034000*%
%ADD207R,0.074900X0.061100*%
%ADD208R,0.044000X0.074000*%
G54D73*
G1X37022Y6971D2*
G1X37022Y30441D1*
G1X103127Y30441D1*
G1X103127Y6971D1*
G1X37022Y6971D1*
G1X40847Y25380D2*
G1X40847Y25763D1*
G1X41297Y25763D2*
G1X41297Y25380D1*
G1X42734Y25871D2*
G54D105*
G1X42736Y25895D1*
G1X42742Y25918D1*
G1X42752Y25940D1*
G1X42766Y25960D1*
G1X42783Y25977D1*
G1X42803Y25991D1*
G1X42825Y26001D1*
G1X42848Y26007D1*
G1X42872Y26009D1*
G1X42896Y26007D1*
G1X42919Y26001D1*
G1X42941Y25991D1*
G1X42961Y25977D1*
G1X42978Y25960D1*
G1X42992Y25940D1*
G1X43002Y25918D1*
G1X43008Y25895D1*
G1X43010Y25871D1*
G1X43008Y25847D1*
G1X43002Y25824D1*
G1X42992Y25802D1*
G1X42978Y25782D1*
G1X42961Y25765D1*
G1X42941Y25751D1*
G1X42919Y25741D1*
G1X42896Y25735D1*
G1X42872Y25733D1*
G1X42848Y25735D1*
G1X42825Y25741D1*
G1X42803Y25751D1*
G1X42783Y25765D1*
G1X42766Y25782D1*
G1X42752Y25802D1*
G1X42742Y25824D1*
G1X42736Y25847D1*
G1X42734Y25871D1*
G1X37915Y25121D2*
G1X37917Y25146D1*
G1X37923Y25171D1*
G1X37933Y25194D1*
G1X37946Y25215D1*
G1X37963Y25234D1*
G1X37983Y25250D1*
G1X38005Y25263D1*
G1X38028Y25272D1*
G1X38053Y25277D1*
G1X38078Y25278D1*
G1X38103Y25275D1*
G1X38128Y25268D1*
G1X38150Y25257D1*
G1X38171Y25243D1*
G1X38190Y25225D1*
G1X38205Y25205D1*
G1X38216Y25183D1*
G1X38224Y25159D1*
G1X38228Y25134D1*
G1X38228Y25108D1*
G1X38224Y25083D1*
G1X38216Y25059D1*
G1X38205Y25037D1*
G1X38190Y25017D1*
G1X38171Y24999D1*
G1X38151Y24985D1*
G1X38128Y24974D1*
G1X38103Y24967D1*
G1X38078Y24964D1*
G1X38053Y24965D1*
G1X38028Y24970D1*
G1X38005Y24979D1*
G1X37983Y24992D1*
G1X37963Y25008D1*
G1X37946Y25027D1*
G1X37933Y25048D1*
G1X37923Y25071D1*
G1X37917Y25096D1*
G1X37915Y25121D1*
G1X36865Y25121D2*
G1X36867Y25146D1*
G1X36873Y25171D1*
G1X36883Y25194D1*
G1X36896Y25215D1*
G1X36913Y25234D1*
G1X36933Y25250D1*
G1X36955Y25263D1*
G1X36978Y25272D1*
G1X37003Y25277D1*
G1X37028Y25278D1*
G1X37053Y25275D1*
G1X37078Y25268D1*
G1X37100Y25257D1*
G1X37121Y25243D1*
G1X37140Y25225D1*
G1X37155Y25205D1*
G1X37166Y25183D1*
G1X37174Y25159D1*
G1X37178Y25134D1*
G1X37178Y25108D1*
G1X37174Y25083D1*
G1X37166Y25059D1*
G1X37155Y25037D1*
G1X37140Y25017D1*
G1X37121Y24999D1*
G1X37101Y24985D1*
G1X37078Y24974D1*
G1X37053Y24967D1*
G1X37028Y24964D1*
G1X37003Y24965D1*
G1X36978Y24970D1*
G1X36955Y24979D1*
G1X36933Y24992D1*
G1X36913Y25008D1*
G1X36896Y25027D1*
G1X36883Y25048D1*
G1X36873Y25071D1*
G1X36867Y25096D1*
G1X36865Y25121D1*
G1X36865Y21871D2*
G1X36867Y21896D1*
G1X36873Y21921D1*
G1X36883Y21944D1*
G1X36896Y21965D1*
G1X36913Y21984D1*
G1X36933Y22000D1*
G1X36955Y22013D1*
G1X36978Y22022D1*
G1X37003Y22027D1*
G1X37028Y22028D1*
G1X37053Y22025D1*
G1X37078Y22018D1*
G1X37100Y22007D1*
G1X37121Y21993D1*
G1X37140Y21975D1*
G1X37155Y21955D1*
G1X37166Y21933D1*
G1X37174Y21909D1*
G1X37178Y21884D1*
G1X37178Y21858D1*
G1X37174Y21833D1*
G1X37166Y21809D1*
G1X37155Y21787D1*
G1X37140Y21767D1*
G1X37121Y21749D1*
G1X37101Y21735D1*
G1X37078Y21724D1*
G1X37053Y21717D1*
G1X37028Y21714D1*
G1X37003Y21715D1*
G1X36978Y21720D1*
G1X36955Y21729D1*
G1X36933Y21742D1*
G1X36913Y21758D1*
G1X36896Y21777D1*
G1X36883Y21798D1*
G1X36873Y21821D1*
G1X36867Y21846D1*
G1X36865Y21871D1*
G1X37915Y21871D2*
G1X37917Y21896D1*
G1X37923Y21921D1*
G1X37933Y21944D1*
G1X37946Y21965D1*
G1X37963Y21984D1*
G1X37983Y22000D1*
G1X38005Y22013D1*
G1X38028Y22022D1*
G1X38053Y22027D1*
G1X38078Y22028D1*
G1X38103Y22025D1*
G1X38128Y22018D1*
G1X38150Y22007D1*
G1X38171Y21993D1*
G1X38190Y21975D1*
G1X38205Y21955D1*
G1X38216Y21933D1*
G1X38224Y21909D1*
G1X38228Y21884D1*
G1X38228Y21858D1*
G1X38224Y21833D1*
G1X38216Y21809D1*
G1X38205Y21787D1*
G1X38190Y21767D1*
G1X38171Y21749D1*
G1X38151Y21735D1*
G1X38128Y21724D1*
G1X38103Y21717D1*
G1X38078Y21714D1*
G1X38053Y21715D1*
G1X38028Y21720D1*
G1X38005Y21729D1*
G1X37983Y21742D1*
G1X37963Y21758D1*
G1X37946Y21777D1*
G1X37933Y21798D1*
G1X37923Y21821D1*
G1X37917Y21846D1*
G1X37915Y21871D1*
G1X47384Y26721D2*
G1X47386Y26745D1*
G1X47392Y26768D1*
G1X47402Y26790D1*
G1X47416Y26810D1*
G1X47433Y26827D1*
G1X47453Y26841D1*
G1X47475Y26851D1*
G1X47498Y26857D1*
G1X47522Y26859D1*
G1X47546Y26857D1*
G1X47569Y26851D1*
G1X47591Y26841D1*
G1X47611Y26827D1*
G1X47628Y26810D1*
G1X47642Y26790D1*
G1X47652Y26768D1*
G1X47658Y26745D1*
G1X47660Y26721D1*
G1X47658Y26697D1*
G1X47652Y26674D1*
G1X47642Y26652D1*
G1X47628Y26632D1*
G1X47611Y26615D1*
G1X47591Y26601D1*
G1X47569Y26591D1*
G1X47546Y26585D1*
G1X47522Y26583D1*
G1X47498Y26585D1*
G1X47475Y26591D1*
G1X47453Y26601D1*
G1X47433Y26615D1*
G1X47416Y26632D1*
G1X47402Y26652D1*
G1X47392Y26674D1*
G1X47386Y26697D1*
G1X47384Y26721D1*
G1X44915Y28550D2*
G1X44917Y28604D1*
G1X44925Y28657D1*
G1X44937Y28709D1*
G1X44954Y28761D1*
G1X44975Y28810D1*
G1X45001Y28857D1*
G1X45031Y28902D1*
G1X45065Y28943D1*
G1X45103Y28982D1*
G1X45144Y29017D1*
G1X45188Y29048D1*
G1X45234Y29075D1*
G1X45283Y29097D1*
G1X45334Y29115D1*
G1X45386Y29129D1*
G1X45439Y29137D1*
G1X45493Y29141D1*
G1X45546Y29140D1*
G1X45600Y29134D1*
G1X45652Y29123D1*
G1X45704Y29107D1*
G1X45754Y29087D1*
G1X45801Y29062D1*
G1X45847Y29033D1*
G1X45889Y29000D1*
G1X45929Y28963D1*
G1X45964Y28923D1*
G1X45996Y28880D1*
G1X46024Y28834D1*
G1X46048Y28785D1*
G1X46067Y28735D1*
G1X46082Y28683D1*
G1X46091Y28630D1*
G1X46096Y28577D1*
G1X46096Y28523D1*
G1X46091Y28470D1*
G1X46082Y28417D1*
G1X46067Y28365D1*
G1X46048Y28315D1*
G1X46024Y28266D1*
G1X45996Y28220D1*
G1X45964Y28177D1*
G1X45929Y28137D1*
G1X45889Y28100D1*
G1X45847Y28067D1*
G1X45802Y28038D1*
G1X45754Y28013D1*
G1X45704Y27993D1*
G1X45652Y27977D1*
G1X45600Y27966D1*
G1X45546Y27960D1*
G1X45493Y27959D1*
G1X45439Y27963D1*
G1X45386Y27971D1*
G1X45334Y27985D1*
G1X45283Y28003D1*
G1X45234Y28025D1*
G1X45188Y28052D1*
G1X45144Y28083D1*
G1X45103Y28118D1*
G1X45065Y28157D1*
G1X45031Y28198D1*
G1X45001Y28243D1*
G1X44975Y28290D1*
G1X44954Y28339D1*
G1X44937Y28391D1*
G1X44925Y28443D1*
G1X44917Y28496D1*
G1X44915Y28550D1*
G1X42734Y29871D2*
G1X42736Y29895D1*
G1X42742Y29918D1*
G1X42752Y29940D1*
G1X42766Y29960D1*
G1X42783Y29977D1*
G1X42803Y29991D1*
G1X42825Y30001D1*
G1X42848Y30007D1*
G1X42872Y30009D1*
G1X42896Y30007D1*
G1X42919Y30001D1*
G1X42941Y29991D1*
G1X42961Y29977D1*
G1X42978Y29960D1*
G1X42992Y29940D1*
G1X43002Y29918D1*
G1X43008Y29895D1*
G1X43010Y29871D1*
G1X43008Y29847D1*
G1X43002Y29824D1*
G1X42992Y29802D1*
G1X42978Y29782D1*
G1X42961Y29765D1*
G1X42941Y29751D1*
G1X42919Y29741D1*
G1X42896Y29735D1*
G1X42872Y29733D1*
G1X42848Y29735D1*
G1X42825Y29741D1*
G1X42803Y29751D1*
G1X42783Y29765D1*
G1X42766Y29782D1*
G1X42752Y29802D1*
G1X42742Y29824D1*
G1X42736Y29847D1*
G1X42734Y29871D1*
G1X37915Y28371D2*
G1X37917Y28396D1*
G1X37923Y28421D1*
G1X37933Y28444D1*
G1X37946Y28465D1*
G1X37963Y28484D1*
G1X37983Y28500D1*
G1X38005Y28513D1*
G1X38028Y28522D1*
G1X38053Y28527D1*
G1X38078Y28528D1*
G1X38103Y28525D1*
G1X38128Y28518D1*
G1X38150Y28507D1*
G1X38171Y28493D1*
G1X38190Y28475D1*
G1X38205Y28455D1*
G1X38216Y28433D1*
G1X38224Y28409D1*
G1X38228Y28384D1*
G1X38228Y28358D1*
G1X38224Y28333D1*
G1X38216Y28309D1*
G1X38205Y28287D1*
G1X38190Y28267D1*
G1X38171Y28249D1*
G1X38151Y28235D1*
G1X38128Y28224D1*
G1X38103Y28217D1*
G1X38078Y28214D1*
G1X38053Y28215D1*
G1X38028Y28220D1*
G1X38005Y28229D1*
G1X37983Y28242D1*
G1X37963Y28258D1*
G1X37946Y28277D1*
G1X37933Y28298D1*
G1X37923Y28321D1*
G1X37917Y28346D1*
G1X37915Y28371D1*
G1X36865Y28371D2*
G1X36867Y28396D1*
G1X36873Y28421D1*
G1X36883Y28444D1*
G1X36896Y28465D1*
G1X36913Y28484D1*
G1X36933Y28500D1*
G1X36955Y28513D1*
G1X36978Y28522D1*
G1X37003Y28527D1*
G1X37028Y28528D1*
G1X37053Y28525D1*
G1X37078Y28518D1*
G1X37100Y28507D1*
G1X37121Y28493D1*
G1X37140Y28475D1*
G1X37155Y28455D1*
G1X37166Y28433D1*
G1X37174Y28409D1*
G1X37178Y28384D1*
G1X37178Y28358D1*
G1X37174Y28333D1*
G1X37166Y28309D1*
G1X37155Y28287D1*
G1X37140Y28267D1*
G1X37121Y28249D1*
G1X37101Y28235D1*
G1X37078Y28224D1*
G1X37053Y28217D1*
G1X37028Y28214D1*
G1X37003Y28215D1*
G1X36978Y28220D1*
G1X36955Y28229D1*
G1X36933Y28242D1*
G1X36913Y28258D1*
G1X36896Y28277D1*
G1X36883Y28298D1*
G1X36873Y28321D1*
G1X36867Y28346D1*
G1X36865Y28371D1*
G1X50134Y29221D2*
G1X50136Y29245D1*
G1X50142Y29268D1*
G1X50152Y29290D1*
G1X50166Y29310D1*
G1X50183Y29327D1*
G1X50203Y29341D1*
G1X50225Y29351D1*
G1X50248Y29357D1*
G1X50272Y29359D1*
G1X50296Y29357D1*
G1X50319Y29351D1*
G1X50341Y29341D1*
G1X50361Y29327D1*
G1X50378Y29310D1*
G1X50392Y29290D1*
G1X50402Y29268D1*
G1X50408Y29245D1*
G1X50410Y29221D1*
G1X50408Y29197D1*
G1X50402Y29174D1*
G1X50392Y29152D1*
G1X50378Y29132D1*
G1X50361Y29115D1*
G1X50341Y29101D1*
G1X50319Y29091D1*
G1X50296Y29085D1*
G1X50272Y29083D1*
G1X50248Y29085D1*
G1X50225Y29091D1*
G1X50203Y29101D1*
G1X50183Y29115D1*
G1X50166Y29132D1*
G1X50152Y29152D1*
G1X50142Y29174D1*
G1X50136Y29197D1*
G1X50134Y29221D1*
G1X56384Y26721D2*
G1X56386Y26745D1*
G1X56392Y26768D1*
G1X56402Y26790D1*
G1X56416Y26810D1*
G1X56433Y26827D1*
G1X56453Y26841D1*
G1X56475Y26851D1*
G1X56498Y26857D1*
G1X56522Y26859D1*
G1X56546Y26857D1*
G1X56569Y26851D1*
G1X56591Y26841D1*
G1X56611Y26827D1*
G1X56628Y26810D1*
G1X56642Y26790D1*
G1X56652Y26768D1*
G1X56658Y26745D1*
G1X56660Y26721D1*
G1X56658Y26697D1*
G1X56652Y26674D1*
G1X56642Y26652D1*
G1X56628Y26632D1*
G1X56611Y26615D1*
G1X56591Y26601D1*
G1X56569Y26591D1*
G1X56546Y26585D1*
G1X56522Y26583D1*
G1X56498Y26585D1*
G1X56475Y26591D1*
G1X56453Y26601D1*
G1X56433Y26615D1*
G1X56416Y26632D1*
G1X56402Y26652D1*
G1X56392Y26674D1*
G1X56386Y26697D1*
G1X56384Y26721D1*
G1X60663Y28550D2*
G1X60665Y28604D1*
G1X60673Y28657D1*
G1X60685Y28709D1*
G1X60702Y28761D1*
G1X60723Y28810D1*
G1X60749Y28857D1*
G1X60779Y28902D1*
G1X60813Y28943D1*
G1X60851Y28982D1*
G1X60892Y29017D1*
G1X60936Y29048D1*
G1X60982Y29075D1*
G1X61031Y29097D1*
G1X61082Y29115D1*
G1X61134Y29129D1*
G1X61187Y29137D1*
G1X61241Y29141D1*
G1X61294Y29140D1*
G1X61348Y29134D1*
G1X61400Y29123D1*
G1X61452Y29107D1*
G1X61502Y29087D1*
G1X61549Y29062D1*
G1X61595Y29033D1*
G1X61637Y29000D1*
G1X61677Y28963D1*
G1X61712Y28923D1*
G1X61744Y28880D1*
G1X61772Y28834D1*
G1X61796Y28785D1*
G1X61815Y28735D1*
G1X61830Y28683D1*
G1X61839Y28630D1*
G1X61844Y28577D1*
G1X61844Y28523D1*
G1X61839Y28470D1*
G1X61830Y28417D1*
G1X61815Y28365D1*
G1X61796Y28315D1*
G1X61772Y28266D1*
G1X61744Y28220D1*
G1X61712Y28177D1*
G1X61677Y28137D1*
G1X61637Y28100D1*
G1X61595Y28067D1*
G1X61550Y28038D1*
G1X61502Y28013D1*
G1X61452Y27993D1*
G1X61400Y27977D1*
G1X61348Y27966D1*
G1X61294Y27960D1*
G1X61241Y27959D1*
G1X61187Y27963D1*
G1X61134Y27971D1*
G1X61082Y27985D1*
G1X61031Y28003D1*
G1X60982Y28025D1*
G1X60936Y28052D1*
G1X60892Y28083D1*
G1X60851Y28118D1*
G1X60813Y28157D1*
G1X60779Y28198D1*
G1X60749Y28243D1*
G1X60723Y28290D1*
G1X60702Y28339D1*
G1X60685Y28391D1*
G1X60673Y28443D1*
G1X60665Y28496D1*
G1X60663Y28550D1*
G1X59134Y29221D2*
G1X59136Y29245D1*
G1X59142Y29268D1*
G1X59152Y29290D1*
G1X59166Y29310D1*
G1X59183Y29327D1*
G1X59203Y29341D1*
G1X59225Y29351D1*
G1X59248Y29357D1*
G1X59272Y29359D1*
G1X59296Y29357D1*
G1X59319Y29351D1*
G1X59341Y29341D1*
G1X59361Y29327D1*
G1X59378Y29310D1*
G1X59392Y29290D1*
G1X59402Y29268D1*
G1X59408Y29245D1*
G1X59410Y29221D1*
G1X59408Y29197D1*
G1X59402Y29174D1*
G1X59392Y29152D1*
G1X59378Y29132D1*
G1X59361Y29115D1*
G1X59341Y29101D1*
G1X59319Y29091D1*
G1X59296Y29085D1*
G1X59272Y29083D1*
G1X59248Y29085D1*
G1X59225Y29091D1*
G1X59203Y29101D1*
G1X59183Y29115D1*
G1X59166Y29132D1*
G1X59152Y29152D1*
G1X59142Y29174D1*
G1X59136Y29197D1*
G1X59134Y29221D1*
G1X100033Y20676D2*
G1X100035Y20730D1*
G1X100043Y20783D1*
G1X100055Y20835D1*
G1X100072Y20887D1*
G1X100093Y20936D1*
G1X100119Y20983D1*
G1X100149Y21028D1*
G1X100183Y21069D1*
G1X100221Y21108D1*
G1X100262Y21143D1*
G1X100306Y21174D1*
G1X100352Y21201D1*
G1X100401Y21223D1*
G1X100452Y21241D1*
G1X100504Y21255D1*
G1X100557Y21263D1*
G1X100611Y21267D1*
G1X100664Y21266D1*
G1X100718Y21260D1*
G1X100770Y21249D1*
G1X100822Y21233D1*
G1X100872Y21213D1*
G1X100919Y21188D1*
G1X100965Y21159D1*
G1X101007Y21126D1*
G1X101047Y21089D1*
G1X101082Y21049D1*
G1X101114Y21006D1*
G1X101142Y20960D1*
G1X101166Y20911D1*
G1X101185Y20861D1*
G1X101200Y20809D1*
G1X101209Y20756D1*
G1X101214Y20703D1*
G1X101214Y20649D1*
G1X101209Y20596D1*
G1X101200Y20543D1*
G1X101185Y20491D1*
G1X101166Y20441D1*
G1X101142Y20392D1*
G1X101114Y20346D1*
G1X101082Y20303D1*
G1X101047Y20263D1*
G1X101007Y20226D1*
G1X100965Y20193D1*
G1X100920Y20164D1*
G1X100872Y20139D1*
G1X100822Y20119D1*
G1X100770Y20103D1*
G1X100718Y20092D1*
G1X100664Y20086D1*
G1X100611Y20085D1*
G1X100557Y20089D1*
G1X100504Y20097D1*
G1X100452Y20111D1*
G1X100401Y20129D1*
G1X100352Y20151D1*
G1X100306Y20178D1*
G1X100262Y20209D1*
G1X100221Y20244D1*
G1X100183Y20283D1*
G1X100149Y20324D1*
G1X100119Y20369D1*
G1X100093Y20416D1*
G1X100072Y20465D1*
G1X100055Y20517D1*
G1X100043Y20569D1*
G1X100035Y20622D1*
G1X100033Y20676D1*
G1X87828Y13196D2*
G1X87830Y13250D1*
G1X87838Y13303D1*
G1X87850Y13355D1*
G1X87867Y13407D1*
G1X87888Y13456D1*
G1X87914Y13503D1*
G1X87944Y13548D1*
G1X87978Y13589D1*
G1X88016Y13628D1*
G1X88057Y13663D1*
G1X88101Y13694D1*
G1X88147Y13721D1*
G1X88196Y13743D1*
G1X88247Y13761D1*
G1X88299Y13775D1*
G1X88352Y13783D1*
G1X88406Y13787D1*
G1X88459Y13786D1*
G1X88513Y13780D1*
G1X88565Y13769D1*
G1X88617Y13753D1*
G1X88667Y13733D1*
G1X88714Y13708D1*
G1X88760Y13679D1*
G1X88802Y13646D1*
G1X88842Y13609D1*
G1X88877Y13569D1*
G1X88909Y13526D1*
G1X88937Y13480D1*
G1X88961Y13431D1*
G1X88980Y13381D1*
G1X88995Y13329D1*
G1X89004Y13276D1*
G1X89009Y13223D1*
G1X89009Y13169D1*
G1X89004Y13116D1*
G1X88995Y13063D1*
G1X88980Y13011D1*
G1X88961Y12961D1*
G1X88937Y12912D1*
G1X88909Y12866D1*
G1X88877Y12823D1*
G1X88842Y12783D1*
G1X88802Y12746D1*
G1X88760Y12713D1*
G1X88715Y12684D1*
G1X88667Y12659D1*
G1X88617Y12639D1*
G1X88565Y12623D1*
G1X88513Y12612D1*
G1X88459Y12606D1*
G1X88406Y12605D1*
G1X88352Y12609D1*
G1X88299Y12617D1*
G1X88247Y12631D1*
G1X88196Y12649D1*
G1X88147Y12671D1*
G1X88101Y12698D1*
G1X88057Y12729D1*
G1X88016Y12764D1*
G1X87978Y12803D1*
G1X87944Y12844D1*
G1X87914Y12889D1*
G1X87888Y12936D1*
G1X87867Y12985D1*
G1X87850Y13037D1*
G1X87838Y13089D1*
G1X87830Y13142D1*
G1X87828Y13196D1*
G1X84256Y10321D2*
G1X84259Y10378D1*
G1X84266Y10435D1*
G1X84279Y10491D1*
G1X84297Y10545D1*
G1X84320Y10598D1*
G1X84348Y10648D1*
G1X84380Y10696D1*
G1X84416Y10740D1*
G1X84456Y10781D1*
G1X84500Y10819D1*
G1X84546Y10852D1*
G1X84596Y10880D1*
G1X84648Y10904D1*
G1X84702Y10924D1*
G1X84758Y10938D1*
G1X84814Y10947D1*
G1X84872Y10951D1*
G1X84929Y10950D1*
G1X84986Y10943D1*
G1X85042Y10931D1*
G1X85097Y10915D1*
G1X85150Y10893D1*
G1X85201Y10867D1*
G1X85249Y10836D1*
G1X85295Y10801D1*
G1X85337Y10761D1*
G1X85375Y10719D1*
G1X85409Y10672D1*
G1X85439Y10623D1*
G1X85464Y10572D1*
G1X85484Y10518D1*
G1X85500Y10463D1*
G1X85510Y10407D1*
G1X85515Y10350D1*
G1X85515Y10292D1*
G1X85510Y10235D1*
G1X85500Y10179D1*
G1X85484Y10124D1*
G1X85464Y10070D1*
G1X85439Y10019D1*
G1X85409Y9970D1*
G1X85375Y9923D1*
G1X85337Y9881D1*
G1X85295Y9841D1*
G1X85249Y9806D1*
G1X85201Y9775D1*
G1X85150Y9749D1*
G1X85097Y9727D1*
G1X85042Y9711D1*
G1X84986Y9699D1*
G1X84929Y9692D1*
G1X84872Y9691D1*
G1X84814Y9695D1*
G1X84758Y9704D1*
G1X84702Y9718D1*
G1X84648Y9738D1*
G1X84596Y9762D1*
G1X84546Y9790D1*
G1X84500Y9823D1*
G1X84456Y9861D1*
G1X84416Y9902D1*
G1X84380Y9946D1*
G1X84348Y9994D1*
G1X84320Y10044D1*
G1X84297Y10097D1*
G1X84279Y10151D1*
G1X84266Y10207D1*
G1X84259Y10264D1*
G1X84256Y10321D1*
G1X79756Y10321D2*
G1X79759Y10378D1*
G1X79766Y10435D1*
G1X79779Y10491D1*
G1X79797Y10545D1*
G1X79820Y10598D1*
G1X79848Y10648D1*
G1X79880Y10696D1*
G1X79916Y10740D1*
G1X79956Y10781D1*
G1X80000Y10819D1*
G1X80046Y10852D1*
G1X80096Y10880D1*
G1X80148Y10904D1*
G1X80202Y10924D1*
G1X80258Y10938D1*
G1X80314Y10947D1*
G1X80372Y10951D1*
G1X80429Y10950D1*
G1X80486Y10943D1*
G1X80542Y10931D1*
G1X80597Y10915D1*
G1X80650Y10893D1*
G1X80701Y10867D1*
G1X80749Y10836D1*
G1X80795Y10801D1*
G1X80837Y10761D1*
G1X80875Y10719D1*
G1X80909Y10672D1*
G1X80939Y10623D1*
G1X80964Y10572D1*
G1X80984Y10518D1*
G1X81000Y10463D1*
G1X81010Y10407D1*
G1X81015Y10350D1*
G1X81015Y10292D1*
G1X81010Y10235D1*
G1X81000Y10179D1*
G1X80984Y10124D1*
G1X80964Y10070D1*
G1X80939Y10019D1*
G1X80909Y9970D1*
G1X80875Y9923D1*
G1X80837Y9881D1*
G1X80795Y9841D1*
G1X80749Y9806D1*
G1X80701Y9775D1*
G1X80650Y9749D1*
G1X80597Y9727D1*
G1X80542Y9711D1*
G1X80486Y9699D1*
G1X80429Y9692D1*
G1X80372Y9691D1*
G1X80314Y9695D1*
G1X80258Y9704D1*
G1X80202Y9718D1*
G1X80148Y9738D1*
G1X80096Y9762D1*
G1X80046Y9790D1*
G1X80000Y9823D1*
G1X79956Y9861D1*
G1X79916Y9902D1*
G1X79880Y9946D1*
G1X79848Y9994D1*
G1X79820Y10044D1*
G1X79797Y10097D1*
G1X79779Y10151D1*
G1X79766Y10207D1*
G1X79759Y10264D1*
G1X79756Y10321D1*
G1X60663Y8865D2*
G1X60665Y8919D1*
G1X60673Y8972D1*
G1X60685Y9024D1*
G1X60702Y9076D1*
G1X60723Y9125D1*
G1X60749Y9172D1*
G1X60779Y9217D1*
G1X60813Y9258D1*
G1X60851Y9297D1*
G1X60892Y9332D1*
G1X60936Y9363D1*
G1X60982Y9390D1*
G1X61031Y9412D1*
G1X61082Y9430D1*
G1X61134Y9444D1*
G1X61187Y9452D1*
G1X61241Y9456D1*
G1X61294Y9455D1*
G1X61348Y9449D1*
G1X61400Y9438D1*
G1X61452Y9422D1*
G1X61502Y9402D1*
G1X61549Y9377D1*
G1X61595Y9348D1*
G1X61637Y9315D1*
G1X61677Y9278D1*
G1X61712Y9238D1*
G1X61744Y9195D1*
G1X61772Y9149D1*
G1X61796Y9100D1*
G1X61815Y9050D1*
G1X61830Y8998D1*
G1X61839Y8945D1*
G1X61844Y8892D1*
G1X61844Y8838D1*
G1X61839Y8785D1*
G1X61830Y8732D1*
G1X61815Y8680D1*
G1X61796Y8630D1*
G1X61772Y8581D1*
G1X61744Y8535D1*
G1X61712Y8492D1*
G1X61677Y8452D1*
G1X61637Y8415D1*
G1X61595Y8382D1*
G1X61550Y8353D1*
G1X61502Y8328D1*
G1X61452Y8308D1*
G1X61400Y8292D1*
G1X61348Y8281D1*
G1X61294Y8275D1*
G1X61241Y8274D1*
G1X61187Y8278D1*
G1X61134Y8286D1*
G1X61082Y8300D1*
G1X61031Y8318D1*
G1X60982Y8340D1*
G1X60936Y8367D1*
G1X60892Y8398D1*
G1X60851Y8433D1*
G1X60813Y8472D1*
G1X60779Y8513D1*
G1X60749Y8558D1*
G1X60723Y8605D1*
G1X60702Y8654D1*
G1X60685Y8706D1*
G1X60673Y8758D1*
G1X60665Y8811D1*
G1X60663Y8865D1*
G1X59134Y8221D2*
G1X59136Y8245D1*
G1X59142Y8268D1*
G1X59152Y8290D1*
G1X59166Y8310D1*
G1X59183Y8327D1*
G1X59203Y8341D1*
G1X59225Y8351D1*
G1X59248Y8357D1*
G1X59272Y8359D1*
G1X59296Y8357D1*
G1X59319Y8351D1*
G1X59341Y8341D1*
G1X59361Y8327D1*
G1X59378Y8310D1*
G1X59392Y8290D1*
G1X59402Y8268D1*
G1X59408Y8245D1*
G1X59410Y8221D1*
G1X59408Y8197D1*
G1X59402Y8174D1*
G1X59392Y8152D1*
G1X59378Y8132D1*
G1X59361Y8115D1*
G1X59341Y8101D1*
G1X59319Y8091D1*
G1X59296Y8085D1*
G1X59272Y8083D1*
G1X59248Y8085D1*
G1X59225Y8091D1*
G1X59203Y8101D1*
G1X59183Y8115D1*
G1X59166Y8132D1*
G1X59152Y8152D1*
G1X59142Y8174D1*
G1X59136Y8197D1*
G1X59134Y8221D1*
G1X56384Y10721D2*
G1X56386Y10745D1*
G1X56392Y10768D1*
G1X56402Y10790D1*
G1X56416Y10810D1*
G1X56433Y10827D1*
G1X56453Y10841D1*
G1X56475Y10851D1*
G1X56498Y10857D1*
G1X56522Y10859D1*
G1X56546Y10857D1*
G1X56569Y10851D1*
G1X56591Y10841D1*
G1X56611Y10827D1*
G1X56628Y10810D1*
G1X56642Y10790D1*
G1X56652Y10768D1*
G1X56658Y10745D1*
G1X56660Y10721D1*
G1X56658Y10697D1*
G1X56652Y10674D1*
G1X56642Y10652D1*
G1X56628Y10632D1*
G1X56611Y10615D1*
G1X56591Y10601D1*
G1X56569Y10591D1*
G1X56546Y10585D1*
G1X56522Y10583D1*
G1X56498Y10585D1*
G1X56475Y10591D1*
G1X56453Y10601D1*
G1X56433Y10615D1*
G1X56416Y10632D1*
G1X56402Y10652D1*
G1X56392Y10674D1*
G1X56386Y10697D1*
G1X56384Y10721D1*
G1X50134Y8221D2*
G1X50136Y8245D1*
G1X50142Y8268D1*
G1X50152Y8290D1*
G1X50166Y8310D1*
G1X50183Y8327D1*
G1X50203Y8341D1*
G1X50225Y8351D1*
G1X50248Y8357D1*
G1X50272Y8359D1*
G1X50296Y8357D1*
G1X50319Y8351D1*
G1X50341Y8341D1*
G1X50361Y8327D1*
G1X50378Y8310D1*
G1X50392Y8290D1*
G1X50402Y8268D1*
G1X50408Y8245D1*
G1X50410Y8221D1*
G1X50408Y8197D1*
G1X50402Y8174D1*
G1X50392Y8152D1*
G1X50378Y8132D1*
G1X50361Y8115D1*
G1X50341Y8101D1*
G1X50319Y8091D1*
G1X50296Y8085D1*
G1X50272Y8083D1*
G1X50248Y8085D1*
G1X50225Y8091D1*
G1X50203Y8101D1*
G1X50183Y8115D1*
G1X50166Y8132D1*
G1X50152Y8152D1*
G1X50142Y8174D1*
G1X50136Y8197D1*
G1X50134Y8221D1*
G1X44915Y8865D2*
G1X44917Y8919D1*
G1X44925Y8972D1*
G1X44937Y9024D1*
G1X44954Y9076D1*
G1X44975Y9125D1*
G1X45001Y9172D1*
G1X45031Y9217D1*
G1X45065Y9258D1*
G1X45103Y9297D1*
G1X45144Y9332D1*
G1X45188Y9363D1*
G1X45234Y9390D1*
G1X45283Y9412D1*
G1X45334Y9430D1*
G1X45386Y9444D1*
G1X45439Y9452D1*
G1X45493Y9456D1*
G1X45546Y9455D1*
G1X45600Y9449D1*
G1X45652Y9438D1*
G1X45704Y9422D1*
G1X45754Y9402D1*
G1X45801Y9377D1*
G1X45847Y9348D1*
G1X45889Y9315D1*
G1X45929Y9278D1*
G1X45964Y9238D1*
G1X45996Y9195D1*
G1X46024Y9149D1*
G1X46048Y9100D1*
G1X46067Y9050D1*
G1X46082Y8998D1*
G1X46091Y8945D1*
G1X46096Y8892D1*
G1X46096Y8838D1*
G1X46091Y8785D1*
G1X46082Y8732D1*
G1X46067Y8680D1*
G1X46048Y8630D1*
G1X46024Y8581D1*
G1X45996Y8535D1*
G1X45964Y8492D1*
G1X45929Y8452D1*
G1X45889Y8415D1*
G1X45847Y8382D1*
G1X45802Y8353D1*
G1X45754Y8328D1*
G1X45704Y8308D1*
G1X45652Y8292D1*
G1X45600Y8281D1*
G1X45546Y8275D1*
G1X45493Y8274D1*
G1X45439Y8278D1*
G1X45386Y8286D1*
G1X45334Y8300D1*
G1X45283Y8318D1*
G1X45234Y8340D1*
G1X45188Y8367D1*
G1X45144Y8398D1*
G1X45103Y8433D1*
G1X45065Y8472D1*
G1X45031Y8513D1*
G1X45001Y8558D1*
G1X44975Y8605D1*
G1X44954Y8654D1*
G1X44937Y8706D1*
G1X44925Y8758D1*
G1X44917Y8811D1*
G1X44915Y8865D1*
G1X47384Y10721D2*
G1X47386Y10745D1*
G1X47392Y10768D1*
G1X47402Y10790D1*
G1X47416Y10810D1*
G1X47433Y10827D1*
G1X47453Y10841D1*
G1X47475Y10851D1*
G1X47498Y10857D1*
G1X47522Y10859D1*
G1X47546Y10857D1*
G1X47569Y10851D1*
G1X47591Y10841D1*
G1X47611Y10827D1*
G1X47628Y10810D1*
G1X47642Y10790D1*
G1X47652Y10768D1*
G1X47658Y10745D1*
G1X47660Y10721D1*
G1X47658Y10697D1*
G1X47652Y10674D1*
G1X47642Y10652D1*
G1X47628Y10632D1*
G1X47611Y10615D1*
G1X47591Y10601D1*
G1X47569Y10591D1*
G1X47546Y10585D1*
G1X47522Y10583D1*
G1X47498Y10585D1*
G1X47475Y10591D1*
G1X47453Y10601D1*
G1X47433Y10615D1*
G1X47416Y10632D1*
G1X47402Y10652D1*
G1X47392Y10674D1*
G1X47386Y10697D1*
G1X47384Y10721D1*
G1X38425Y10841D2*
G1X38427Y10869D1*
G1X38433Y10897D1*
G1X38443Y10923D1*
G1X38456Y10948D1*
G1X38473Y10970D1*
G1X38493Y10990D1*
G1X38515Y11007D1*
G1X38540Y11020D1*
G1X38566Y11030D1*
G1X38594Y11036D1*
G1X38622Y11038D1*
G1X38650Y11036D1*
G1X38678Y11030D1*
G1X38704Y11020D1*
G1X38729Y11007D1*
G1X38751Y10990D1*
G1X38771Y10970D1*
G1X38788Y10948D1*
G1X38801Y10923D1*
G1X38811Y10897D1*
G1X38817Y10869D1*
G1X38819Y10841D1*
G1X38817Y10813D1*
G1X38811Y10785D1*
G1X38801Y10759D1*
G1X38788Y10734D1*
G1X38771Y10712D1*
G1X38751Y10692D1*
G1X38729Y10675D1*
G1X38704Y10662D1*
G1X38678Y10652D1*
G1X38650Y10646D1*
G1X38622Y10644D1*
G1X38594Y10646D1*
G1X38566Y10652D1*
G1X38540Y10662D1*
G1X38515Y10675D1*
G1X38493Y10692D1*
G1X38473Y10712D1*
G1X38456Y10734D1*
G1X38443Y10759D1*
G1X38433Y10785D1*
G1X38427Y10813D1*
G1X38425Y10841D1*
G1X37691Y11571D2*
G1X37693Y11599D1*
G1X37699Y11627D1*
G1X37709Y11653D1*
G1X37722Y11678D1*
G1X37739Y11700D1*
G1X37759Y11720D1*
G1X37781Y11737D1*
G1X37806Y11750D1*
G1X37832Y11760D1*
G1X37860Y11766D1*
G1X37888Y11768D1*
G1X37916Y11766D1*
G1X37944Y11760D1*
G1X37970Y11750D1*
G1X37995Y11737D1*
G1X38017Y11720D1*
G1X38037Y11700D1*
G1X38054Y11678D1*
G1X38067Y11653D1*
G1X38077Y11627D1*
G1X38083Y11599D1*
G1X38085Y11571D1*
G1X38083Y11543D1*
G1X38077Y11515D1*
G1X38067Y11489D1*
G1X38054Y11464D1*
G1X38037Y11442D1*
G1X38017Y11422D1*
G1X37995Y11405D1*
G1X37970Y11392D1*
G1X37944Y11382D1*
G1X37916Y11376D1*
G1X37888Y11374D1*
G1X37860Y11376D1*
G1X37832Y11382D1*
G1X37806Y11392D1*
G1X37781Y11405D1*
G1X37759Y11422D1*
G1X37739Y11442D1*
G1X37722Y11464D1*
G1X37709Y11489D1*
G1X37699Y11515D1*
G1X37693Y11543D1*
G1X37691Y11571D1*
G1X38425Y9108D2*
G1X38427Y9136D1*
G1X38433Y9164D1*
G1X38443Y9190D1*
G1X38456Y9215D1*
G1X38473Y9237D1*
G1X38493Y9257D1*
G1X38515Y9274D1*
G1X38540Y9287D1*
G1X38566Y9297D1*
G1X38594Y9303D1*
G1X38622Y9305D1*
G1X38650Y9303D1*
G1X38678Y9297D1*
G1X38704Y9287D1*
G1X38729Y9274D1*
G1X38751Y9257D1*
G1X38771Y9237D1*
G1X38788Y9215D1*
G1X38801Y9190D1*
G1X38811Y9164D1*
G1X38817Y9136D1*
G1X38819Y9108D1*
G1X38817Y9080D1*
G1X38811Y9052D1*
G1X38801Y9026D1*
G1X38788Y9001D1*
G1X38771Y8979D1*
G1X38751Y8959D1*
G1X38729Y8942D1*
G1X38704Y8929D1*
G1X38678Y8919D1*
G1X38650Y8913D1*
G1X38622Y8911D1*
G1X38594Y8913D1*
G1X38566Y8919D1*
G1X38540Y8929D1*
G1X38515Y8942D1*
G1X38493Y8959D1*
G1X38473Y8979D1*
G1X38456Y9001D1*
G1X38443Y9026D1*
G1X38433Y9052D1*
G1X38427Y9080D1*
G1X38425Y9108D1*
G1X37691Y8421D2*
G1X37693Y8449D1*
G1X37699Y8477D1*
G1X37709Y8503D1*
G1X37722Y8528D1*
G1X37739Y8550D1*
G1X37759Y8570D1*
G1X37781Y8587D1*
G1X37806Y8600D1*
G1X37832Y8610D1*
G1X37860Y8616D1*
G1X37888Y8618D1*
G1X37916Y8616D1*
G1X37944Y8610D1*
G1X37970Y8600D1*
G1X37995Y8587D1*
G1X38017Y8570D1*
G1X38037Y8550D1*
G1X38054Y8528D1*
G1X38067Y8503D1*
G1X38077Y8477D1*
G1X38083Y8449D1*
G1X38085Y8421D1*
G1X38083Y8393D1*
G1X38077Y8365D1*
G1X38067Y8339D1*
G1X38054Y8314D1*
G1X38037Y8292D1*
G1X38017Y8272D1*
G1X37995Y8255D1*
G1X37970Y8242D1*
G1X37944Y8232D1*
G1X37916Y8226D1*
G1X37888Y8224D1*
G1X37860Y8226D1*
G1X37832Y8232D1*
G1X37806Y8242D1*
G1X37781Y8255D1*
G1X37759Y8272D1*
G1X37739Y8292D1*
G1X37722Y8314D1*
G1X37709Y8339D1*
G1X37699Y8365D1*
G1X37693Y8393D1*
G1X37691Y8421D1*
G1X101129Y28822D2*
G1X101131Y28847D1*
G1X101137Y28872D1*
G1X101147Y28895D1*
G1X101160Y28916D1*
G1X101177Y28935D1*
G1X101197Y28951D1*
G1X101219Y28964D1*
G1X101242Y28973D1*
G1X101267Y28978D1*
G1X101292Y28979D1*
G1X101317Y28976D1*
G1X101342Y28969D1*
G1X101364Y28958D1*
G1X101385Y28944D1*
G1X101404Y28926D1*
G1X101419Y28906D1*
G1X101430Y28884D1*
G1X101438Y28860D1*
G1X101442Y28835D1*
G1X101442Y28809D1*
G1X101438Y28784D1*
G1X101430Y28760D1*
G1X101419Y28738D1*
G1X101404Y28718D1*
G1X101385Y28700D1*
G1X101365Y28686D1*
G1X101342Y28675D1*
G1X101317Y28668D1*
G1X101292Y28665D1*
G1X101267Y28666D1*
G1X101242Y28671D1*
G1X101219Y28680D1*
G1X101197Y28693D1*
G1X101177Y28709D1*
G1X101160Y28728D1*
G1X101147Y28749D1*
G1X101137Y28772D1*
G1X101131Y28797D1*
G1X101129Y28822D1*
G1X101129Y29872D2*
G1X101131Y29897D1*
G1X101137Y29922D1*
G1X101147Y29945D1*
G1X101160Y29966D1*
G1X101177Y29985D1*
G1X101197Y30001D1*
G1X101219Y30014D1*
G1X101242Y30023D1*
G1X101267Y30028D1*
G1X101292Y30029D1*
G1X101317Y30026D1*
G1X101342Y30019D1*
G1X101364Y30008D1*
G1X101385Y29994D1*
G1X101404Y29976D1*
G1X101419Y29956D1*
G1X101430Y29934D1*
G1X101438Y29910D1*
G1X101442Y29885D1*
G1X101442Y29859D1*
G1X101438Y29834D1*
G1X101430Y29810D1*
G1X101419Y29788D1*
G1X101404Y29768D1*
G1X101385Y29750D1*
G1X101365Y29736D1*
G1X101342Y29725D1*
G1X101317Y29718D1*
G1X101292Y29715D1*
G1X101267Y29716D1*
G1X101242Y29721D1*
G1X101219Y29730D1*
G1X101197Y29743D1*
G1X101177Y29759D1*
G1X101160Y29778D1*
G1X101147Y29799D1*
G1X101137Y29822D1*
G1X101131Y29847D1*
G1X101129Y29872D1*
G54D132*
G1X100624Y20676D3*
G1X88419Y13196D3*
G1X61254Y8865D3*
G1X45506Y8865D3*
G1X45506Y28550D3*
G1X61254Y28550D3*
G54D133*
G1X67475Y28049D3*
G1X67475Y27852D3*
G1X67475Y27656D3*
G1X67475Y27459D3*
G1X67475Y27262D3*
G1X67475Y27065D3*
G1X67475Y26868D3*
G1X68636Y26159D3*
G1X68833Y26159D3*
G1X69030Y26159D3*
G1X69227Y26159D3*
G1X69424Y26159D3*
G1X69620Y26159D3*
G1X69817Y26159D3*
G1X73734Y26634D3*
G1X73734Y27421D3*
G1X73734Y28209D3*
G1X73734Y28996D3*
G1X77671Y28996D3*
G1X77671Y28209D3*
G1X77671Y27421D3*
G1X77671Y26634D3*
G1X81608Y26634D3*
G1X81608Y27421D3*
G1X81608Y28209D3*
G1X81608Y28996D3*
G1X85545Y28996D3*
G1X85545Y28209D3*
G1X85545Y27421D3*
G1X85545Y26634D3*
G1X89482Y26634D3*
G1X89482Y27421D3*
G1X89482Y28209D3*
G1X89482Y28996D3*
G1X93419Y28996D3*
G1X93419Y28209D3*
G1X93419Y27421D3*
G1X93419Y26634D3*
G1X97356Y26634D3*
G1X97356Y27421D3*
G1X97356Y28209D3*
G1X97356Y28996D3*
G1X69817Y28719D3*
G1X69620Y28719D3*
G1X69424Y28719D3*
G1X69227Y28719D3*
G1X69030Y28719D3*
G1X68833Y28719D3*
G1X68636Y28719D3*
G54D134*
G1X63522Y7571D3*
G1X47322Y7471D3*
G54D135*
G1X43822Y10021D3*
G1X43122Y10021D3*
G1X43122Y10621D3*
G1X43822Y10621D3*
G1X43822Y11821D3*
G1X43122Y11821D3*
G1X45122Y12471D3*
G1X45822Y12471D3*
G1X46572Y13171D3*
G1X47272Y13171D3*
G1X46672Y11221D3*
G1X46672Y10521D3*
G1X44872Y15421D3*
G1X44872Y16121D3*
G1X46922Y17471D3*
G1X46922Y18171D3*
G1X46922Y18771D3*
G1X46922Y19471D3*
G1X47172Y20071D3*
G1X46272Y20071D3*
G1X45672Y20071D3*
G1X45672Y20771D3*
G1X46272Y20771D3*
G1X47172Y20771D3*
G1X51022Y22121D3*
G1X51022Y22821D3*
G1X53922Y22521D3*
G1X53922Y23121D3*
G1X54622Y23121D3*
G1X55222Y23121D3*
G1X55922Y23121D3*
G1X54622Y22521D3*
G1X55522Y24021D3*
G1X55422Y24621D3*
G1X56222Y24621D3*
G1X56222Y24021D3*
G1X57422Y24621D3*
G1X58022Y24621D3*
G1X58022Y25321D3*
G1X57422Y25321D3*
G1X56222Y25321D3*
G1X55422Y25321D3*
G1X58422Y23646D3*
G1X60272Y23671D3*
G1X60872Y23671D3*
G1X61472Y23521D3*
G1X62072Y23521D3*
G1X62672Y23521D3*
G1X62672Y24221D3*
G1X62072Y24221D3*
G1X61472Y24221D3*
G1X60872Y22971D3*
G1X60272Y22971D3*
G1X58422Y22946D3*
G1X62522Y22421D3*
G1X63222Y22421D3*
G1X64972Y22521D3*
G1X65672Y22521D3*
G1X66672Y23021D3*
G1X67272Y22924D3*
G1X67972Y22924D3*
G1X67972Y23524D3*
G1X67272Y23524D3*
G1X66672Y23721D3*
G1X66672Y24524D3*
G1X66672Y25224D3*
G1X66072Y25132D3*
G1X66072Y25732D3*
G1X65372Y25732D3*
G1X65372Y25132D3*
G1X64522Y25516D3*
G1X64522Y26216D3*
G1X67072Y25903D3*
G1X67772Y25903D3*
G1X70274Y26929D3*
G1X70974Y26929D3*
G1X70974Y27835D3*
G1X70274Y27835D3*
G1X64089Y28941D3*
G1X63301Y28941D3*
G1X63301Y29641D3*
G1X64089Y29641D3*
G1X57722Y29171D3*
G1X57022Y29171D3*
G1X57022Y28571D3*
G1X57722Y28571D3*
G1X59272Y26680D3*
G1X60122Y26680D3*
G1X60722Y26680D3*
G1X60722Y25980D3*
G1X60122Y25980D3*
G1X59272Y25980D3*
G1X49522Y27471D3*
G1X49522Y28171D3*
G1X47622Y28471D3*
G1X47622Y27771D3*
G1X46772Y26571D3*
G1X46072Y26571D3*
G1X39972Y28271D3*
G1X39372Y28271D3*
G1X39622Y27671D3*
G1X39622Y26971D3*
G1X39372Y28971D3*
G1X39972Y28971D3*
G1X47172Y29371D3*
G1X47772Y29371D3*
G1X47772Y30071D3*
G1X47172Y30071D3*
G1X47122Y24571D3*
G1X47822Y24571D3*
G1X47822Y23071D3*
G1X47122Y23071D3*
G1X42322Y19821D3*
G1X42322Y19121D3*
G1X61140Y16496D3*
G1X61840Y16496D3*
G1X61760Y20945D3*
G1X62460Y20945D3*
G1X79915Y18775D3*
G1X79915Y18075D3*
G1X89325Y18075D3*
G1X89325Y18775D3*
G1X77199Y13578D3*
G1X77199Y12878D3*
G1X77514Y12004D3*
G1X77514Y11304D3*
G1X74242Y11772D3*
G1X73542Y11772D3*
G1X77754Y9370D3*
G1X78454Y9370D3*
G1X78454Y8268D3*
G1X77754Y8268D3*
G54D136*
G1X64822Y9221D3*
G1X64422Y9221D3*
G1X55268Y13649D3*
G1X54868Y13649D3*
G1X54508Y13649D3*
G1X54390Y14003D3*
G1X54790Y14003D3*
G1X54108Y13649D3*
G1X53932Y16021D3*
G1X54332Y16021D3*
G1X54332Y16441D3*
G1X54292Y16831D3*
G1X54292Y17181D3*
G1X54292Y17561D3*
G1X54332Y17911D3*
G1X54332Y18261D3*
G1X54332Y18611D3*
G1X54332Y19001D3*
G1X54332Y19401D3*
G1X53932Y19401D3*
G1X53932Y19001D3*
G1X53932Y18611D3*
G1X53932Y18261D3*
G1X53932Y17911D3*
G1X53892Y17561D3*
G1X53892Y17181D3*
G1X53892Y16831D3*
G1X53932Y16441D3*
G1X50552Y16401D3*
G1X50552Y16761D3*
G1X50552Y17141D3*
G1X50552Y17521D3*
G1X50552Y17871D3*
G1X50552Y18221D3*
G1X50552Y18601D3*
G1X50612Y18951D3*
G1X50552Y19301D3*
G1X50152Y19301D3*
G1X50212Y18951D3*
G1X50152Y18601D3*
G1X50152Y18221D3*
G1X50152Y17871D3*
G1X50152Y17521D3*
G1X50152Y17141D3*
G1X50152Y16761D3*
G1X50152Y16401D3*
G1X50152Y16021D3*
G1X50552Y16021D3*
G1X51202Y17971D3*
G1X51602Y17971D3*
G1X52882Y17971D3*
G1X53282Y17971D3*
G1X51472Y19371D3*
G1X51072Y19371D3*
G1X52042Y20781D3*
G1X52442Y20781D3*
G1X55072Y21171D3*
G1X55072Y21521D3*
G1X55072Y21871D3*
G1X55472Y21871D3*
G1X55472Y21521D3*
G1X55472Y21171D3*
G1X58172Y22471D3*
G1X58572Y22471D3*
G1X59122Y22471D3*
G1X59522Y22471D3*
G1X59922Y22471D3*
G1X60322Y22471D3*
G1X60722Y22471D3*
G1X61122Y22471D3*
G1X61522Y22471D3*
G1X61922Y22471D3*
G1X61897Y21921D3*
G1X62272Y21921D3*
G1X62672Y21921D3*
G1X61497Y21921D3*
G1X59892Y21171D3*
G1X59492Y21171D3*
G1X60872Y19771D3*
G1X61272Y19771D3*
G1X59022Y19221D3*
G1X58622Y19221D3*
G1X59597Y15721D3*
G1X59997Y15721D3*
G1X60542Y16014D3*
G1X60942Y16014D3*
G1X60922Y15471D3*
G1X61322Y15471D3*
G1X61722Y15471D3*
G1X62122Y15471D3*
G1X45522Y10571D3*
G1X45122Y10571D3*
G1X43672Y11121D3*
G1X43272Y11121D3*
G1X40622Y22771D3*
G1X40622Y23121D3*
G1X40222Y23121D3*
G1X40222Y22771D3*
G1X40222Y24271D3*
G1X40222Y24621D3*
G1X40622Y24621D3*
G1X40622Y24271D3*
G1X40672Y26221D3*
G1X41072Y26221D3*
G1X46472Y27071D3*
G1X46872Y27071D3*
G1X41272Y28421D3*
G1X40872Y28421D3*
G1X47272Y24096D3*
G1X47272Y23746D3*
G1X47672Y23746D3*
G1X47672Y24096D3*
G1X58372Y26571D3*
G1X58772Y26571D3*
G54D141*
G1X59022Y28271D3*
G1X59022Y28671D3*
G1X59522Y28671D3*
G1X59522Y28271D3*
G1X58522Y28471D3*
G1X58522Y28871D3*
G1X59022Y29771D3*
G1X59022Y30171D3*
G1X59522Y30171D3*
G1X59522Y29771D3*
G1X63472Y27321D3*
G1X63822Y27321D3*
G1X63822Y26921D3*
G1X63472Y26921D3*
G1X63322Y21821D3*
G1X63322Y21421D3*
G1X63322Y20971D3*
G1X63322Y20571D3*
G1X63322Y20121D3*
G1X63322Y19721D3*
G1X63322Y19271D3*
G1X63322Y18871D3*
G1X63322Y18421D3*
G1X63322Y18021D3*
G1X63322Y17571D3*
G1X63322Y17171D3*
G1X63322Y16721D3*
G1X63322Y16321D3*
G1X63322Y15871D3*
G1X63322Y15471D3*
G1X61254Y16975D3*
G1X61254Y17375D3*
G1X59372Y17271D3*
G1X59372Y16871D3*
G1X54647Y16971D3*
G1X54647Y17371D3*
G1X53522Y16421D3*
G1X53142Y16421D3*
G1X52762Y16421D3*
G1X52382Y16421D3*
G1X52027Y16421D3*
G1X51672Y16421D3*
G1X51292Y16421D3*
G1X50912Y16421D3*
G1X52092Y16781D3*
G1X52092Y17181D3*
G1X52092Y17541D3*
G1X52092Y17941D3*
G1X52092Y18301D3*
G1X52092Y18701D3*
G1X52092Y19061D3*
G1X52092Y19461D3*
G1X52122Y19821D3*
G1X52492Y19801D3*
G1X52862Y19801D3*
G1X53232Y19801D3*
G1X53602Y19801D3*
G1X53972Y19801D3*
G1X54342Y19801D3*
G1X54342Y20201D3*
G1X53972Y20201D3*
G1X53602Y20201D3*
G1X53232Y20201D3*
G1X52862Y20201D3*
G1X52492Y20201D3*
G1X52122Y20221D3*
G1X51742Y20201D3*
G1X51372Y20201D3*
G1X51002Y20201D3*
G1X50632Y20201D3*
G1X50262Y20201D3*
G1X50262Y19801D3*
G1X50632Y19801D3*
G1X51002Y19801D3*
G1X51372Y19801D3*
G1X51742Y19801D3*
G1X44197Y21021D3*
G1X44197Y21421D3*
G1X45372Y16121D3*
G1X45372Y15721D3*
G1X45872Y15721D3*
G1X45872Y16121D3*
G1X50912Y16021D3*
G1X51292Y16021D3*
G1X51672Y16021D3*
G1X52027Y16021D3*
G1X52382Y16021D3*
G1X52762Y16021D3*
G1X53142Y16021D3*
G1X53522Y16021D3*
G1X44472Y13371D3*
G1X44472Y12971D3*
G1X46672Y12371D3*
G1X46672Y11971D3*
G1X47172Y11971D3*
G1X47172Y12371D3*
G1X44472Y11721D3*
G1X44472Y11321D3*
G1X65624Y12044D3*
G1X66018Y12044D3*
G1X66018Y12444D3*
G1X65624Y12444D3*
G1X77277Y10633D3*
G1X77277Y10233D3*
G1X59922Y21571D3*
G1X59922Y21971D3*
G1X40097Y27121D3*
G1X40097Y27521D3*
G54D188*
G1X45072Y13171D3*
G1X45872Y13171D3*
G1X43772Y9021D3*
G1X42972Y9021D3*
G1X73492Y10984D3*
G1X74292Y10984D3*
G1X75303Y11988D3*
G1X76103Y11988D3*
G54D139*
G1X65663Y28504D3*
G1X38772Y29015D3*
G54D140*
G1X38772Y28228D3*
G1X38298Y19795D3*
G1X38140Y19795D3*
G1X37983Y19795D3*
G1X37845Y19795D3*
G1X40227Y19795D3*
G1X40305Y19795D3*
G1X40424Y19795D3*
G1X40581Y19795D3*
G1X40620Y19795D3*
G1X40739Y19795D3*
G1X40739Y14047D3*
G1X40620Y14047D3*
G1X40581Y14047D3*
G1X40424Y14047D3*
G1X40305Y14047D3*
G1X40227Y14047D3*
G1X38298Y14047D3*
G1X38140Y14047D3*
G1X37983Y14047D3*
G1X37845Y14047D3*
G1X64876Y28504D3*
G1X81382Y13959D3*
G1X82382Y13959D3*
G1X83382Y13959D3*
G1X84382Y13959D3*
G1X83882Y12959D3*
G1X82882Y12959D3*
G1X81882Y12959D3*
G1X80882Y12959D3*
G54D189*
G1X76318Y10972D3*
G1X75718Y10972D3*
G1X74389Y10264D3*
G1X73789Y10264D3*
G1X75718Y9972D3*
G1X76318Y9972D3*
G1X74389Y9264D3*
G1X73789Y9264D3*
G1X43772Y8321D3*
G1X43172Y8321D3*
G1X43172Y7321D3*
G1X43772Y7321D3*
G54D190*
G1X43772Y7671D3*
G1X43772Y7971D3*
G1X43172Y7971D3*
G1X43172Y7671D3*
G1X73789Y9614D3*
G1X73789Y9914D3*
G1X74389Y9914D3*
G1X74389Y9614D3*
G1X75718Y10322D3*
G1X75718Y10622D3*
G1X76318Y10622D3*
G1X76318Y10322D3*
G54D159*
G1X57796Y22959D3*
G1X57048Y22959D3*
G1X57048Y23983D3*
G1X57422Y23983D3*
G1X57796Y23983D3*
G1X48946Y27059D3*
G1X48198Y27059D3*
G1X48198Y28083D3*
G1X48572Y28083D3*
G1X48946Y28083D3*
G1X67297Y25158D3*
G1X67671Y25158D3*
G1X68045Y25158D3*
G1X68045Y24134D3*
G1X67671Y24134D3*
G1X67297Y24134D3*
G54D191*
G1X49444Y29571D3*
G1X48499Y29571D3*
G54D142*
G1X70506Y25185D3*
G1X73734Y25185D3*
G1X77671Y25185D3*
G1X81608Y25185D3*
G1X85545Y25185D3*
G1X89482Y25185D3*
G1X93419Y25185D3*
G1X97356Y25185D3*
G54D143*
G1X97356Y24185D3*
G1X93419Y24185D3*
G1X89482Y24185D3*
G1X85545Y24185D3*
G1X81608Y24185D3*
G1X77671Y24185D3*
G1X73734Y24185D3*
G1X70506Y24185D3*
G54D168*
G1X65604Y26890D3*
G1X64856Y26890D3*
G1X65230Y27756D3*
G1X58420Y27821D3*
G1X56924Y27821D3*
G1X41446Y29088D3*
G1X40698Y29088D3*
G1X41072Y29954D3*
G1X63374Y8571D3*
G1X64870Y8571D3*
G54D192*
G1X45983Y11147D3*
G1X45983Y11521D3*
G1X45983Y11895D3*
G1X44960Y11895D3*
G1X44960Y11147D3*
G54D137*
G1X38622Y10841D3*
G1X37888Y11571D3*
G1X43419Y13937D3*
G1X38622Y9108D3*
G1X37888Y8421D3*
G1X44010Y30079D3*
G1X101687Y13937D3*
G54D152*
G1X62672Y24671D3*
G54D153*
G1X63065Y24415D3*
G1X62927Y24278D3*
G1X62927Y24041D3*
G1X62416Y24041D3*
G1X62416Y24278D3*
G1X62278Y24415D3*
G1X62042Y24415D3*
G1X62042Y24927D3*
G1X62278Y24927D3*
G1X62416Y25065D3*
G1X62416Y25301D3*
G1X62927Y25301D3*
G1X62927Y25065D3*
G1X63065Y24927D3*
G1X63301Y24927D3*
G1X63301Y24415D3*
G54D154*
G1X59122Y24299D3*
G1X59122Y25244D3*
G1X69128Y24921D3*
G1X69128Y23976D3*
G54D193*
G1X65543Y24407D3*
G1X65543Y23257D3*
G54D167*
G1X64797Y29193D3*
G1X65663Y29567D3*
G1X64797Y29941D3*
G1X41505Y27321D3*
G1X40639Y26947D3*
G1X40639Y27695D3*
G54D194*
G1X67523Y29764D3*
G1X69237Y29764D3*
G54D195*
G1X69027Y21772D3*
G1X67102Y21772D3*
G54D196*
G1X66998Y12471D3*
G1X66998Y11971D3*
G1X66998Y11471D3*
G1X66998Y10971D3*
G1X69345Y10971D3*
G1X69345Y11471D3*
G1X69345Y11971D3*
G1X69345Y12471D3*
G54D197*
G1X41572Y18920D3*
G1X41572Y20022D3*
G54D185*
G1X41522Y25571D3*
G1X41072Y25571D3*
G1X40622Y25571D3*
G1X56122Y8121D3*
G1X56122Y7521D3*
G1X57122Y7521D3*
G1X57122Y8121D3*
G54D186*
G1X56772Y8121D3*
G1X56472Y8121D3*
G1X56472Y7521D3*
G1X56772Y7521D3*
G54D158*
G1X39549Y21185D3*
G1X39549Y26201D3*
G1X72612Y26437D3*
G1X74856Y26437D3*
G1X76549Y26437D3*
G1X78793Y26437D3*
G1X80486Y26437D3*
G1X82730Y26437D3*
G1X84423Y26437D3*
G1X86667Y26437D3*
G1X88360Y26437D3*
G1X90604Y26437D3*
G1X92297Y26437D3*
G1X94541Y26437D3*
G1X96234Y26437D3*
G1X98478Y26437D3*
G1X98478Y29193D3*
G1X96234Y29193D3*
G1X94541Y29193D3*
G1X92297Y29193D3*
G1X90604Y29193D3*
G1X88360Y29193D3*
G1X86667Y29193D3*
G1X84423Y29193D3*
G1X82730Y29193D3*
G1X80486Y29193D3*
G1X78793Y29193D3*
G1X76549Y29193D3*
G1X74856Y29193D3*
G1X72612Y29193D3*
G54D198*
G1X62922Y27221D3*
G1X58372Y26971D3*
G1X56722Y25821D3*
G1X55922Y25821D3*
G1X60172Y24921D3*
G1X56422Y23121D3*
G1X64822Y23571D3*
G1X45972Y21271D3*
G1X41572Y21721D3*
G1X44922Y26571D3*
G1X45388Y30079D3*
G54D199*
G1X45922Y19259D3*
G1X45922Y17684D3*
G54D200*
G1X37822Y20871D3*
G1X37222Y20871D3*
G1X37222Y22871D3*
G1X37822Y22871D3*
G1X37822Y24121D3*
G1X37222Y24121D3*
G1X37222Y26121D3*
G1X37822Y26121D3*
G1X37822Y27371D3*
G1X37222Y27371D3*
G1X37222Y29371D3*
G1X37822Y29371D3*
G54D162*
G1X38072Y28371D3*
G1X37022Y28371D3*
G1X37022Y25121D3*
G1X38072Y25121D3*
G1X38072Y21871D3*
G1X37022Y21871D3*
G1X101286Y28822D3*
G1X101286Y29872D3*
G1X101352Y13937D2*
G54D138*
G1X101354Y13974D1*
G1X101360Y14010D1*
G1X101370Y14046D1*
G1X101384Y14080D1*
G1X101402Y14112D1*
G1X101423Y14143D1*
G1X101447Y14171D1*
G1X101474Y14196D1*
G1X101504Y14217D1*
G1X101536Y14236D1*
G1X101570Y14251D1*
G1X101605Y14262D1*
G1X101641Y14269D1*
G1X101678Y14272D1*
G1X101715Y14271D1*
G1X101751Y14266D1*
G1X101787Y14257D1*
G1X101822Y14244D1*
G1X101854Y14227D1*
G1X101885Y14207D1*
G1X101914Y14183D1*
G1X101940Y14157D1*
G1X101962Y14128D1*
G1X101982Y14096D1*
G1X101997Y14063D1*
G1X102009Y14028D1*
G1X102017Y13992D1*
G1X102021Y13955D1*
G1X102021Y13919D1*
G1X102017Y13882D1*
G1X102009Y13846D1*
G1X101997Y13811D1*
G1X101982Y13778D1*
G1X101962Y13746D1*
G1X101940Y13717D1*
G1X101914Y13691D1*
G1X101885Y13667D1*
G1X101855Y13647D1*
G1X101822Y13630D1*
G1X101787Y13617D1*
G1X101751Y13608D1*
G1X101715Y13603D1*
G1X101678Y13602D1*
G1X101641Y13605D1*
G1X101605Y13612D1*
G1X101570Y13623D1*
G1X101536Y13638D1*
G1X101504Y13657D1*
G1X101474Y13678D1*
G1X101447Y13703D1*
G1X101423Y13731D1*
G1X101402Y13762D1*
G1X101384Y13794D1*
G1X101370Y13828D1*
G1X101360Y13864D1*
G1X101354Y13900D1*
G1X101352Y13937D1*
G1X43675Y30079D2*
G1X43677Y30116D1*
G1X43683Y30152D1*
G1X43693Y30188D1*
G1X43707Y30222D1*
G1X43725Y30254D1*
G1X43746Y30285D1*
G1X43770Y30313D1*
G1X43797Y30338D1*
G1X43827Y30359D1*
G1X43859Y30378D1*
G1X43893Y30393D1*
G1X43928Y30404D1*
G1X43964Y30411D1*
G1X44001Y30414D1*
G1X44038Y30413D1*
G1X44074Y30408D1*
G1X44110Y30399D1*
G1X44145Y30386D1*
G1X44177Y30369D1*
G1X44208Y30349D1*
G1X44237Y30325D1*
G1X44263Y30299D1*
G1X44285Y30270D1*
G1X44305Y30238D1*
G1X44320Y30205D1*
G1X44332Y30170D1*
G1X44340Y30134D1*
G1X44344Y30097D1*
G1X44344Y30061D1*
G1X44340Y30024D1*
G1X44332Y29988D1*
G1X44320Y29953D1*
G1X44305Y29920D1*
G1X44285Y29888D1*
G1X44263Y29859D1*
G1X44237Y29833D1*
G1X44208Y29809D1*
G1X44178Y29789D1*
G1X44145Y29772D1*
G1X44110Y29759D1*
G1X44074Y29750D1*
G1X44038Y29745D1*
G1X44001Y29744D1*
G1X43964Y29747D1*
G1X43928Y29754D1*
G1X43893Y29765D1*
G1X43859Y29780D1*
G1X43827Y29799D1*
G1X43797Y29820D1*
G1X43770Y29845D1*
G1X43746Y29873D1*
G1X43725Y29904D1*
G1X43707Y29936D1*
G1X43693Y29970D1*
G1X43683Y30006D1*
G1X43677Y30042D1*
G1X43675Y30079D1*
G1X43084Y13937D2*
G1X43086Y13974D1*
G1X43092Y14010D1*
G1X43102Y14046D1*
G1X43116Y14080D1*
G1X43134Y14112D1*
G1X43155Y14143D1*
G1X43179Y14171D1*
G1X43206Y14196D1*
G1X43236Y14217D1*
G1X43268Y14236D1*
G1X43302Y14251D1*
G1X43337Y14262D1*
G1X43373Y14269D1*
G1X43410Y14272D1*
G1X43447Y14271D1*
G1X43483Y14266D1*
G1X43519Y14257D1*
G1X43554Y14244D1*
G1X43586Y14227D1*
G1X43617Y14207D1*
G1X43646Y14183D1*
G1X43672Y14157D1*
G1X43694Y14128D1*
G1X43714Y14096D1*
G1X43729Y14063D1*
G1X43741Y14028D1*
G1X43749Y13992D1*
G1X43753Y13955D1*
G1X43753Y13919D1*
G1X43749Y13882D1*
G1X43741Y13846D1*
G1X43729Y13811D1*
G1X43714Y13778D1*
G1X43694Y13746D1*
G1X43672Y13717D1*
G1X43646Y13691D1*
G1X43617Y13667D1*
G1X43587Y13647D1*
G1X43554Y13630D1*
G1X43519Y13617D1*
G1X43483Y13608D1*
G1X43447Y13603D1*
G1X43410Y13602D1*
G1X43373Y13605D1*
G1X43337Y13612D1*
G1X43302Y13623D1*
G1X43268Y13638D1*
G1X43236Y13657D1*
G1X43206Y13678D1*
G1X43179Y13703D1*
G1X43155Y13731D1*
G1X43134Y13762D1*
G1X43116Y13794D1*
G1X43102Y13828D1*
G1X43092Y13864D1*
G1X43086Y13900D1*
G1X43084Y13937D1*
G54D201*
G1X44822Y21071D3*
G1X44822Y21371D3*
G54D202*
G1X42071Y11256D3*
G1X42071Y10823D3*
G1X42071Y10390D3*
G1X42071Y9957D3*
G1X42071Y9524D3*
G1X42071Y9091D3*
G1X42071Y8658D3*
G1X42071Y8225D3*
G1X42071Y7792D3*
G54D203*
G1X41825Y7319D3*
G54D204*
G1X41825Y13067D3*
G54D205*
G1X38045Y13421D3*
G1X38045Y7319D3*
G54D206*
G1X39822Y29621D3*
G1X40122Y29621D3*
G1X66498Y30118D3*
G1X66798Y30118D3*
G54D163*
G1X65522Y7571D3*
G1X64522Y7571D3*
G54D165*
G1X59272Y8221D3*
G1X56522Y10721D3*
G1X50272Y8221D3*
G1X47522Y10721D3*
G1X42872Y25871D3*
G1X47522Y26721D3*
G1X50272Y29221D3*
G1X42872Y29871D3*
G1X56522Y26721D3*
G1X59272Y29221D3*
G54D207*
G1X66529Y29191D3*
G1X66529Y27266D3*
G54D145*
G1X74561Y25085D3*
G1X74561Y24285D3*
G1X78498Y24285D3*
G1X78498Y25085D3*
G1X82435Y25085D3*
G1X82435Y24285D3*
G1X86372Y24285D3*
G1X86372Y25085D3*
G1X90309Y25085D3*
G1X90309Y24285D3*
G1X94246Y24285D3*
G1X94246Y25085D3*
G1X98183Y25085D3*
G1X98183Y24285D3*
G54D144*
G1X96451Y27559D3*
G1X96451Y28268D3*
G1X92514Y28268D3*
G1X92514Y27559D3*
G1X88577Y27559D3*
G1X88577Y28268D3*
G1X84640Y28268D3*
G1X84640Y27559D3*
G1X80703Y27559D3*
G1X80703Y28268D3*
G1X76766Y28268D3*
G1X76766Y27559D3*
G1X72829Y27559D3*
G1X72829Y28268D3*
G1X79915Y20157D3*
G1X79915Y19449D3*
G1X89325Y19449D3*
G1X89325Y20157D3*
G1X77829Y13583D3*
G1X77829Y12874D3*
G1X76913Y12008D3*
G1X76913Y11299D3*
G1X74994Y10787D3*
G1X74994Y10079D3*
G1X72711Y11024D3*
G1X72711Y11732D3*
G1X77750Y10000D3*
G1X78459Y10000D3*
G54D177*
G1X99972Y22616D3*
G54D178*
G1X99185Y22616D3*
G1X98398Y22616D3*
G1X97610Y22616D3*
G1X96823Y22616D3*
G1X96035Y22616D3*
G1X95248Y22616D3*
G1X94461Y22616D3*
G1X93673Y22616D3*
G1X92886Y22616D3*
G1X92886Y13955D3*
G1X93673Y13955D3*
G1X94461Y13955D3*
G1X95248Y13955D3*
G1X96035Y13955D3*
G1X96823Y13955D3*
G1X97610Y13955D3*
G1X98398Y13955D3*
G1X99185Y13955D3*
G1X99972Y13955D3*
G54D182*
G1X84886Y10321D3*
G1X80386Y10321D3*
G54D183*
G1X80033Y8442D3*
G1X81033Y8451D3*
G1X84238Y8442D3*
G1X85238Y8451D3*
G54D184*
G1X85785Y11305D3*
G1X85785Y11384D3*
G1X85785Y11463D3*
G1X85785Y11541D3*
G1X85785Y11620D3*
G1X85785Y11699D3*
G1X85230Y11541D3*
G1X80151Y11541D3*
G1X79486Y11541D3*
G1X79486Y11463D3*
G1X79486Y11384D3*
G1X79486Y11305D3*
G1X79486Y11620D3*
G1X79486Y11699D3*
G54D172*
G1X55151Y10789D3*
G1X53892Y10789D3*
G1X53892Y12955D3*
G1X55151Y12955D3*
G54D208*
G1X86105Y9370D3*
G1X87505Y9370D3*
M2*
